<svg width="25" height="25" viewBox="0 0 25 25" fill="none" xmlns="http://www.w3.org/2000/svg">
<path d="M12.5 0C5.59652 0 0 5.59652 0 12.5C0 19.4035 5.59652 25 12.5 25C19.4035 25 25 19.4035 25 12.5C24.9923 5.59977 19.4002 0.00773115 12.5 0ZM12.5 24.1667C6.05672 24.1667 0.833333 18.9433 0.833333 12.5C0.833333 6.05672 6.05672 0.833333 12.5 0.833333C18.9433 0.833333 24.1667 6.05672 24.1667 12.5C24.1593 18.9402 18.9402 24.1593 12.5 24.1667Z" fill="#DF2614"/>
<path d="M11.6666 7.08337H7.49992C7.26982 7.08337 7.08325 7.26994 7.08325 7.50004V11.6667C7.08325 11.8968 7.26982 12.0834 7.49992 12.0834H11.6666C11.8967 12.0834 12.0833 11.8968 12.0833 11.6667V7.50004C12.0833 7.26994 11.8967 7.08337 11.6666 7.08337ZM11.2499 11.25H7.91659V7.91671H11.2499V11.25Z" fill="#DF2614"/>
<path d="M17.5 7.08337H13.3333C13.1032 7.08337 12.9166 7.26994 12.9166 7.50004V11.6667C12.9166 11.8968 13.1032 12.0834 13.3333 12.0834H17.5C17.7301 12.0834 17.9166 11.8968 17.9166 11.6667V7.50004C17.9166 7.26994 17.7301 7.08337 17.5 7.08337ZM17.0833 11.25H13.75V7.91671H17.0833V11.25Z" fill="#DF2614"/>
<path d="M11.6666 12.9166H7.49992C7.26982 12.9166 7.08325 13.1032 7.08325 13.3333V17.5C7.08325 17.7301 7.26982 17.9166 7.49992 17.9166H11.6666C11.8967 17.9166 12.0833 17.7301 12.0833 17.5V13.3333C12.0833 13.1032 11.8967 12.9166 11.6666 12.9166ZM11.2499 17.0833H7.91659V13.75H11.2499V17.0833Z" fill="#DF2614"/>
<path d="M17.5 12.9166H13.3333C13.1032 12.9166 12.9166 13.1032 12.9166 13.3333V17.5C12.9166 17.7301 13.1032 17.9166 13.3333 17.9166H17.5C17.7301 17.9166 17.9166 17.7301 17.9166 17.5V13.3333C17.9166 13.1032 17.7301 12.9166 17.5 12.9166ZM17.0833 17.0833H13.75V13.75H17.0833V17.0833Z" fill="#DF2614"/>
</svg>
