<svg width="80" height="80" viewBox="0 0 80 80" fill="none" xmlns="http://www.w3.org/2000/svg">
<path d="M68 13.1331H12V69.0001H68V13.1331Z" fill="#F4F4F4"/>
<path fill-rule="evenodd" clip-rule="evenodd" d="M12 57.7201V55.3321L12.266 56.5261V56.6591L12 57.7201ZM12 33.8341V31.4451L12.266 32.6401V32.7731L12 33.8341Z" fill="#40332B"/>
<path fill-rule="evenodd" clip-rule="evenodd" d="M21.178 65.1519L22.242 68.9999H21.444L20.514 65.4169L12.266 57.1899L12.133 57.8529V56.1279H12.266C12.266 56.1279 12.399 56.1279 12.399 56.2609L21.179 65.0189C21.045 65.0189 21.179 65.1519 21.179 65.1519H21.178Z" fill="#40332B"/>
<path fill-rule="evenodd" clip-rule="evenodd" d="M24.37 53.4739L21.178 65.2839L22.11 68.9999H21.445L20.515 65.4169V65.2839L23.707 53.3409C23.707 53.3409 23.707 53.2079 23.84 53.2079L32.619 44.4499L32.752 44.3169C32.885 44.3169 33.151 44.3169 33.151 44.5829L36.343 56.5259V56.6589L33.15 68.6019C33.15 68.6019 33.15 68.7349 33.017 68.7349L32.75 68.9999H31.819L32.484 68.3369L35.676 56.5259L32.616 45.2459L24.37 53.4739Z" fill="#40332B"/>
<path fill-rule="evenodd" clip-rule="evenodd" d="M21.178 41.1331L24.37 53.0761V53.2091L21.178 65.1521C21.178 65.2841 20.912 65.4171 20.779 65.4171C20.779 65.4171 20.646 65.4171 20.646 65.2841L12.133 56.7911V54.9341L12.399 56.1281L20.646 64.3561L23.706 53.0761L20.513 41.2661L12.266 33.0381L12.133 33.7011V31.9761H12.266C12.399 31.9761 12.399 31.9761 12.399 32.1091L21.179 40.8671C21.045 41.1331 21.179 41.1331 21.179 41.1331H21.178Z" fill="#40332B"/>
<path fill-rule="evenodd" clip-rule="evenodd" d="M21.178 17.2461L24.37 29.1901V29.3221L21.178 41.2651C21.178 41.3981 20.912 41.5311 20.779 41.5311C20.779 41.5311 20.646 41.5311 20.646 41.3981L12 32.9051V31.0471L12.266 32.2421L20.513 40.4691L23.573 29.1891L20.513 17.5121L16.256 13.1321H17.188L21.045 16.9811C21.045 17.1141 21.178 17.1141 21.178 17.2461Z" fill="#40332B"/>
<path d="M24.105 53.474C24.105 53.474 23.972 53.474 24.105 53.474C23.972 53.474 23.972 53.474 23.972 53.341L20.779 41.398V41.265L23.972 29.322L32.751 20.564H32.884C32.884 20.564 33.017 20.564 33.017 20.697L36.209 32.64V32.773L33.017 44.716L24.105 53.474ZM21.045 41.398L24.238 53.076L32.884 44.45L36.076 32.507L32.884 20.829L24.238 29.455L21.045 41.398Z" fill="#40332B"/>
<path fill-rule="evenodd" clip-rule="evenodd" d="M22.242 13.1331L21.178 17.2461L24.238 28.5261L32.485 20.2991L34.48 13.1331H35.145L33.15 20.5641C33.15 20.5641 33.15 20.6971 33.017 20.6971L24.237 29.4551L24.105 29.5881C23.972 29.5881 23.705 29.5881 23.705 29.3221L20.514 17.3801V17.2471L21.578 13.1341H22.243L22.242 13.1331Z" fill="#40332B"/>
<path d="M44.855 65.4171L35.943 56.6591L32.751 44.7161V44.5831L35.943 32.6401C35.943 32.6401 35.943 32.5071 36.076 32.5071H36.209L44.989 41.2651L48.18 53.2101V53.3421L44.987 65.2851C44.987 65.2851 44.987 65.4181 44.854 65.4181C44.987 65.4181 44.987 65.4181 44.854 65.4181L44.855 65.4171ZM36.209 56.3931L44.855 65.0191L48.048 53.3411L44.855 41.3981L36.209 32.7721L33.017 44.4501L36.209 56.3931Z" fill="#40332B"/>
<path d="M48.18 53.474C48.048 53.474 48.048 53.474 48.048 53.341L44.855 41.398V41.265L48.048 29.322L56.827 20.564H56.96C56.96 20.564 57.093 20.564 57.093 20.697L60.285 32.64V32.773L57.093 44.716L48.181 53.474H48.18ZM45.121 41.265L48.314 52.943L56.96 44.318L60.152 32.374L56.96 20.697L48.314 29.322L45.121 41.265Z" fill="#40332B"/>
<path fill-rule="evenodd" clip-rule="evenodd" d="M45.254 17.246L48.447 29.19V29.322L45.254 41.265C45.254 41.398 44.988 41.531 44.855 41.531C44.722 41.531 44.722 41.531 44.722 41.398L35.943 32.64L35.81 32.507L32.618 20.564V20.431L34.48 13.133H35.145L33.15 20.43L36.342 32.24L44.589 40.468L47.649 29.188L44.456 17.378L40.066 13H40.998L45.121 16.981C45.254 17.114 45.254 17.114 45.254 17.246Z" fill="#40332B"/>
<path fill-rule="evenodd" clip-rule="evenodd" d="M46.318 13.1331L45.254 17.3791C45.254 17.5121 44.988 17.6441 44.855 17.6441C44.855 17.6441 44.722 17.6441 44.722 17.5121L40.332 13.1321H41.264L44.722 16.5821L45.653 13.1321H46.318V13.1331Z" fill="#40332B"/>
<path fill-rule="evenodd" clip-rule="evenodd" d="M46.451 13.1331L45.254 17.3791L48.314 28.6591L56.561 20.4311L58.556 13.1331H59.221L57.226 20.6971C57.226 20.6971 57.226 20.8291 57.093 20.8291L48.313 29.5881L48.181 29.7201C48.048 29.7201 47.781 29.7201 47.781 29.4551L44.59 17.5121V17.3791L45.654 13.2651H46.452V13.1331H46.451ZM68 16.7161L64.409 13.1331H65.339L68 15.7871V16.7161ZM45.254 65.2841L46.318 69.0001H45.653L44.723 65.5501L36.475 57.3221L33.415 68.6021L33.549 69.0001H32.884L32.751 68.6021V68.4691L35.943 56.5261C35.943 56.3931 36.209 56.2611 36.343 56.2611C36.343 56.2611 36.475 56.2611 36.475 56.3931L45.255 65.1521V65.2841H45.254ZM68 64.7541L60.019 56.7911L59.886 56.6591L56.693 44.7161V44.5831L59.886 32.6401C59.886 32.5071 60.152 32.3741 60.285 32.3741C60.285 32.3741 60.418 32.3741 60.418 32.5071L68 40.0711V40.8671L60.418 33.3031L57.358 44.5831L60.551 56.3931L68 63.8251V64.7531V64.7541Z" fill="#40332B"/>
<path fill-rule="evenodd" clip-rule="evenodd" d="M68 40.7351L60.019 32.7731L59.886 32.6401L56.693 20.6971V20.5641L58.689 13.2651H59.354L57.359 20.6971L60.551 32.5071L68 39.9381V40.7351ZM65.207 13.1331H64.275L68 16.8481V15.7871L65.207 13.1331ZM56.827 69.0001L56.694 68.6021V68.4691L59.886 56.5261C59.886 56.3931 60.152 56.2611 60.285 56.2611C60.285 56.2611 60.418 56.2611 60.418 56.3931L68 63.9571V64.7541L60.418 57.1901L57.358 68.4701L57.492 69.0001H56.827Z" fill="#40332B"/>
<path fill-rule="evenodd" clip-rule="evenodd" d="M48.447 53.6069L45.254 65.417L46.185 69H45.52L44.59 65.55V65.417L47.782 53.4739C47.782 53.4739 47.782 53.341 47.915 53.341L56.694 44.583L56.827 44.45C56.96 44.45 57.226 44.45 57.226 44.716L60.418 56.659V56.792L57.226 68.735C57.226 68.735 57.226 68.8669 57.093 68.8669V69H56.162L56.694 68.47L59.886 56.659L56.826 45.379L48.446 53.6069H48.447Z" fill="#40332B"/>
<path d="M12.5 13.5H67.5V68.5H12.5V13.5Z" stroke="#947D6F"/>
</svg>
