<svg width="80" height="80" viewBox="0 0 80 80" fill="none" xmlns="http://www.w3.org/2000/svg">
<path fill-rule="evenodd" clip-rule="evenodd" d="M72.529 40.5629L51.979 30.1919L8.384 55.5419V56.6949C8.576 56.8869 8.96 56.8869 8.96 57.2709C8.96 57.6549 8.768 57.6549 8.384 57.6549V58.6149L10.881 60.1519L11.265 59.3839L11.841 60.7279L15.681 63.0329L16.066 62.2639L16.45 63.6089L20.291 65.9129L20.675 65.1449L21.059 66.4899L27.973 70.7149L72.145 44.2119V43.0589C72.337 42.8669 72.337 42.8669 72.337 42.4829C72.337 42.2909 72.145 41.9069 72.145 41.9069L72.529 40.5629Z" fill="#E0D5C7"/>
<path d="M28.55 70.715C28.357 70.715 28.357 70.715 28.55 70.715L21.443 66.49V66.298L21.059 65.338L20.675 65.914C20.675 66.106 20.483 66.106 20.483 65.914L16.643 63.609V63.417L16.45 62.649L16.258 63.033C16.258 63.225 16.066 63.225 16.066 63.033L12.225 60.728V60.536L11.841 59.576L11.649 59.96L11.457 60.152H11.265L8.768 58.615C8.768 58.615 8.768 58.423 8.576 58.423V57.271H8.96V57.079C8.96 56.887 8.768 56.887 8.576 56.695L8.384 56.503V55.351C8.384 55.351 8.384 55.159 8.576 55.159L51.787 30H51.979L72.721 40.37L72.913 40.563V41.523C73.105 41.715 73.105 41.907 73.105 42.291C73.105 42.675 72.913 42.867 72.913 42.867V44.02C72.913 44.02 72.913 44.212 72.721 44.212L28.549 70.715H28.55ZM21.635 66.105L28.357 70.139L72.53 43.828V42.483C72.53 42.483 72.722 42.291 72.722 41.907C72.722 41.715 72.722 41.523 72.53 41.523C72.338 41.523 72.338 41.523 72.338 41.331V40.371L51.98 30.384L8.576 55.543V56.503C8.768 56.695 9.152 56.887 9.152 57.271C9.152 57.463 8.96 57.655 8.96 57.655C8.96 57.655 8.768 57.847 8.576 57.847V58.423L10.881 59.96L11.265 59.384L11.457 59.192C11.457 59.192 11.649 59.192 11.649 59.384L12.225 60.728L15.874 62.841L16.258 62.264L16.45 62.072C16.45 62.072 16.642 62.072 16.642 62.264L17.026 63.417L20.676 65.529L21.059 64.953L21.251 64.761C21.251 64.761 21.443 64.761 21.443 64.953L21.635 66.106V66.105Z" fill="black"/>
<path fill-rule="evenodd" clip-rule="evenodd" d="M28.742 67.6419L72.722 41.5229V43.8279L28.55 70.33L21.636 66.105L21.252 65.912L20.676 65.72L16.835 63.416L16.258 63.032L15.874 62.84L12.034 60.535L11.265 60.3429L11.073 60.151L8.384 58.422V57.462C8.768 57.462 8.96 57.078 8.96 56.886L28.742 67.6409V67.6419Z" fill="#FFF7ED"/>
<path d="M28.55 70.7151C28.358 70.7151 28.358 70.7151 28.55 70.7151L20.483 65.9131L10.881 60.3441L8.384 58.8081C8.384 58.8081 8.384 58.6151 8.192 58.6151V57.4631H8.576C8.768 57.4631 8.768 57.2711 8.768 57.0791C8.768 57.0791 8.768 56.8871 8.96 56.8871H9.153L28.742 67.6421L72.529 41.3301H72.721L72.913 41.5221V43.8271C72.913 43.8271 72.913 44.0191 72.721 44.0191L28.55 70.7151ZM8.576 58.4231L12.033 60.5361L21.636 66.1061L28.55 70.3311L72.53 43.8281V41.9081L28.933 67.8331H28.741L9.152 57.2711C9.14522 57.3707 9.10259 57.4645 9.03199 57.5351C8.96139 57.6057 8.86761 57.6483 8.768 57.6551C8.768 57.6551 8.576 57.6551 8.576 57.8471V58.4231Z" fill="black"/>
<path d="M72.436 41.3601L28.528 67.4771L28.725 67.8071L72.633 41.6901L72.436 41.3601ZM72.55 42.5661L28.414 69.4201L28.614 69.7481L72.748 42.8941L72.548 42.5661H72.55Z" fill="black"/>
<path opacity="0.26" d="M31.238 44.2121C31.238 44.2121 31.046 44.2121 31.238 44.2121C31.046 44.0201 31.046 44.0201 31.046 43.8281C31.43 43.2511 32.198 42.8681 33.158 42.4831C34.118 42.0991 35.463 41.5231 36.808 40.1791C38.536 38.6421 40.648 38.0661 42.569 37.4901C44.105 37.1061 45.449 36.7221 46.218 35.9541C48.523 33.6491 50.251 33.0731 51.788 32.4971C52.748 32.1131 53.708 31.7291 54.284 30.9601C54.284 30.9601 54.476 30.7681 54.668 30.9601C54.668 30.9601 54.86 31.1521 54.668 31.3441C53.9 32.1131 52.94 32.4971 51.98 32.8811C50.635 33.4571 48.715 34.0331 46.602 36.3381C45.642 37.2981 44.297 37.6821 42.761 38.0661C41.033 38.4501 38.92 39.0261 37.191 40.5631C35.847 41.9071 34.503 42.4831 33.351 43.0591C32.391 43.4441 31.814 43.6361 31.238 44.2121ZM10.496 56.8871C10.304 56.8871 10.304 56.6951 10.304 56.5031C13.569 51.3181 15.49 51.3181 17.602 51.3181C18.755 51.3181 19.907 51.3181 21.252 50.5491C22.02 50.1651 22.98 49.7811 24.324 49.3971C26.821 48.6291 29.894 47.6691 31.814 45.7481C32.198 45.3641 32.582 45.1721 32.966 45.1721C33.543 44.7881 34.119 44.5961 34.311 43.8281C34.311 43.6361 34.503 43.6361 34.503 43.6361C34.695 43.6361 34.695 43.8281 34.695 43.8281C34.503 44.7881 33.735 45.1721 32.966 45.3641C32.582 45.5561 32.198 45.7481 32.006 45.9401C30.086 48.0531 26.821 49.0131 24.324 49.7811L21.444 50.7411C19.907 51.5101 18.754 51.5101 17.602 51.5101C15.682 51.7021 13.762 51.7021 10.496 56.8871C10.688 56.6951 10.496 56.8871 10.496 56.8871ZM16.258 59.9601C16.258 59.9601 16.066 59.9601 16.066 59.7681C16.066 59.5761 16.066 59.5761 16.258 59.5761C16.642 59.3841 17.218 58.8071 17.794 58.0391C19.139 56.1191 21.444 53.4301 26.244 52.2781C26.437 52.2781 28.549 50.7411 28.741 50.7411C28.741 50.7411 28.933 50.5491 28.933 50.7411C28.933 50.7411 29.125 50.9341 28.933 51.1261C28.741 51.3181 26.437 52.8541 26.245 52.8541C21.443 53.8141 19.331 56.6951 17.986 58.4241C17.218 59.0001 16.834 59.5761 16.258 59.9601ZM29.894 54.3901C29.702 54.3901 29.51 54.3901 29.51 54.1981C29.125 53.8141 29.894 52.8541 32.006 50.5501C32.966 49.3971 34.119 48.2451 34.887 47.0931C36.807 44.5961 39.88 43.2511 42.185 42.2911C43.145 41.9071 44.105 41.5231 44.49 41.1391H44.874V41.5231C44.297 41.9071 43.529 42.2911 42.377 42.8671C40.264 43.8271 37.192 45.1721 35.271 47.6691C34.311 48.8211 33.159 50.1651 32.198 51.1261C31.046 52.4701 29.702 54.0061 29.702 54.1981C29.702 54.1981 29.894 54.1981 31.43 53.6221C32.583 53.0461 33.159 52.4701 33.927 51.7021C34.887 50.5501 35.847 49.3971 38.92 48.6291C39.112 48.6291 40.264 47.6691 41.609 46.9011C43.913 45.3641 46.986 43.2511 48.331 42.8671C50.059 42.2911 51.211 40.1791 51.211 38.8341C51.211 38.4501 51.211 38.2581 51.019 38.0661C50.827 38.0661 50.635 37.8741 49.675 38.6421H49.291V38.2581C50.059 37.6821 50.635 37.4901 51.019 37.6821C51.211 37.8741 51.403 38.0661 51.403 38.8341C51.211 40.1791 50.059 42.4841 48.139 43.0591C46.794 43.6361 43.721 45.5561 41.417 47.0931C39.688 48.2451 38.92 48.8211 38.728 48.8211C35.848 49.5891 34.888 50.7411 33.927 51.7011C33.351 52.4701 32.583 53.2381 31.43 53.8141C30.662 54.1981 30.278 54.3911 29.894 54.3911V54.3901Z" fill="black"/>
<path opacity="0.26" d="M27.59 57.6549C27.205 57.6549 26.821 57.6549 26.437 57.2709C26.053 57.0789 25.861 56.5029 25.861 55.9269C25.861 54.1979 27.013 53.6219 27.973 53.0459C28.933 52.4699 29.893 52.0859 30.086 50.7409C30.278 49.7809 32.583 47.8609 33.735 46.9009H34.119V47.2839C32.199 48.8209 30.854 50.1649 30.662 50.7409C30.47 52.2779 29.318 52.8539 28.358 53.4309C27.398 54.0059 26.437 54.3909 26.437 55.9269C26.437 56.5029 26.629 56.6949 26.821 56.8869C27.589 57.4629 29.126 56.8869 30.471 56.5029C31.238 56.3109 31.814 56.1189 32.391 56.1189C33.543 55.9269 34.887 54.5819 36.424 53.0459C38.92 50.5489 41.994 47.4759 46.41 47.2849C46.602 47.2849 46.602 47.2849 46.602 47.4769C46.602 47.6689 46.602 47.6689 46.41 47.6689C42.185 47.8609 39.112 50.9339 36.808 53.4299C35.271 54.9669 33.927 56.3099 32.583 56.5029C32.007 56.5029 31.43 56.6949 30.854 56.8869C29.51 57.4629 28.55 57.6549 27.589 57.6549H27.59Z" fill="black"/>
<path opacity="0.26" d="M22.596 63.2249C22.596 63.2249 22.404 63.2249 22.404 63.0329C22.404 62.8409 22.404 62.8409 22.596 62.8409C24.132 62.4569 25.092 61.6879 25.861 61.1119C27.013 60.1519 28.357 58.9999 31.814 58.4229C35.271 57.8469 37.384 55.9269 39.688 53.6229C41.033 52.0859 42.953 51.5099 44.682 50.9329C47.178 50.1649 49.482 49.3969 49.482 46.3239C49.482 44.9799 52.748 40.5629 54.092 39.6029H54.284V39.7949C52.94 40.5629 49.867 44.9799 49.867 46.1319C49.675 49.3969 47.37 50.1649 44.682 51.1259C42.953 51.7019 41.032 52.2779 39.88 53.8139C37.576 56.3109 35.271 58.2309 31.814 58.8079C28.549 59.3839 27.205 60.3439 26.053 61.3039C25.093 62.0719 24.324 62.8409 22.596 63.2239V63.2249ZM53.9 36.1459C53.516 36.1459 53.324 36.1459 53.132 35.9539C52.94 35.7619 52.748 35.5689 52.748 35.3769C52.748 34.9929 53.132 34.6089 53.9 34.2249C54.093 34.2249 54.477 34.0329 54.669 33.8409C54.861 33.6489 55.245 33.4569 55.629 33.2649C55.821 33.2649 55.821 33.2649 55.821 33.4569C55.821 33.6489 55.821 33.6489 55.629 33.6489C55.437 33.8409 55.053 34.0329 54.861 34.0329C54.477 34.2249 54.093 34.4169 53.901 34.6089C53.324 34.8009 53.132 35.1849 53.132 35.3769C53.132 35.5689 53.324 35.5689 53.324 35.5689C53.9 35.9539 56.013 35.5689 58.51 33.4569H58.894V33.8409C56.781 35.3769 55.053 36.1459 53.9 36.1459Z" fill="black"/>
<path opacity="0.26" d="M33.35 60.3439C33.159 60.1519 33.159 59.9599 33.159 59.9599C34.503 59.1919 35.271 58.8079 36.039 58.4229C37.192 57.8469 38.344 57.4629 40.649 55.5429C42.569 54.0059 44.682 53.4299 46.41 52.8539C47.755 52.4699 48.715 52.0859 49.099 51.7019C50.827 49.2049 53.324 47.6689 55.245 46.7079C56.589 45.9399 57.933 45.1719 58.509 44.4039C59.469 43.0589 59.662 42.4839 59.662 41.7149C59.854 40.5629 60.046 39.6019 63.695 36.3379H64.079V36.7219C60.622 39.9869 60.429 40.7549 60.238 41.9069C60.046 42.4829 59.854 43.2519 58.894 44.5959C58.317 45.5559 56.973 46.3239 55.437 47.0929C53.324 48.2449 51.02 49.5889 49.483 52.0859C49.099 52.8539 47.947 53.0459 46.603 53.4299C44.873 54.0059 42.761 54.5819 40.841 56.1189C38.536 58.0389 37.384 58.6149 36.231 58.9989C35.655 58.9989 34.695 59.3839 33.351 60.3439C33.543 60.3439 33.351 60.3439 33.351 60.3439H33.35Z" fill="black"/>
<path d="M28.55 70.715C28.357 70.715 28.357 70.715 28.55 70.715L20.483 65.913L10.881 60.344L8.384 58.808C8.384 58.808 8.384 58.615 8.192 58.615V57.463H8.576V57.271C8.576 57.079 8.384 57.079 8.192 56.887L8 56.695V55.543C8 55.543 8 55.351 8.192 55.351L51.788 30H51.98L72.72 40.37L72.912 40.563V41.523C73.104 41.715 73.104 41.907 73.104 42.291C73.104 42.675 72.912 42.867 72.912 42.867V44.02C72.912 44.02 72.912 44.212 72.72 44.212L28.549 70.715H28.55ZM8.575 58.423L11.072 59.96L21.635 66.106L28.356 70.139V69.179C28.356 68.986 28.356 68.986 28.548 68.986C28.74 68.986 28.932 68.986 29.125 68.602C29.125 68.41 29.125 68.026 28.548 67.834L28.356 67.642V66.298L8.768 55.735V56.311C8.96 56.503 9.344 56.695 9.344 57.079C9.344 57.271 9.152 57.463 9.152 57.463C9.152 57.463 8.96 57.655 8.768 57.655L8.576 58.423H8.575ZM28.741 69.37V70.139L72.53 43.828V42.483C72.53 42.483 72.722 42.291 72.722 41.907C72.722 41.715 72.722 41.523 72.53 41.523C72.338 41.523 72.338 41.523 72.338 41.331V40.563L28.74 66.298V67.45C29.317 67.642 29.317 68.218 29.317 68.602C29.125 68.986 28.932 69.178 28.74 69.37H28.741ZM28.357 65.913C28.549 65.913 28.549 65.913 28.357 65.913L72.145 40.563L51.98 30.384L8.768 55.543L28.358 65.913H28.357Z" fill="black"/>
<path fill-rule="evenodd" clip-rule="evenodd" d="M72.529 19.5629L51.979 9.19189L8.384 34.5419V35.6949C8.576 35.8869 8.96 35.8869 8.96 36.2709C8.96 36.6549 8.768 36.6549 8.384 36.6549V37.6149L10.881 39.1519L11.265 38.3839L11.841 39.7279L15.681 42.0329L16.066 41.2639L16.45 42.6089L20.291 44.9129L20.675 44.1449L21.059 45.4889L27.973 49.7149L72.145 23.2119V22.0589C72.337 21.8669 72.337 21.8669 72.337 21.4829C72.337 21.2909 72.145 20.9069 72.145 20.9069L72.529 19.5629Z" fill="#E0D5C7"/>
<path d="M28.55 49.715C28.357 49.715 28.357 49.715 28.55 49.715L21.443 45.49V45.298L21.059 44.338L20.675 44.913C20.675 45.106 20.483 45.106 20.483 44.913L16.643 42.609V42.417L16.45 41.649L16.258 42.033C16.258 42.225 16.066 42.225 16.066 42.033L12.225 39.728V39.536L11.841 38.576L11.649 38.96L11.457 39.152H11.265L8.768 37.615C8.768 37.615 8.768 37.423 8.576 37.423V36.271H8.96V36.079C8.96 35.887 8.768 35.887 8.576 35.695L8.384 35.503V34.351C8.384 34.351 8.384 34.159 8.576 34.159L51.787 9H51.979L72.721 19.37L72.913 19.563V20.523C73.105 20.715 73.105 20.907 73.105 21.291C73.105 21.675 72.913 21.867 72.913 21.867V23.02C72.913 23.02 72.913 23.212 72.721 23.212L28.549 49.715H28.55ZM21.635 45.105L28.357 49.139L72.53 22.828V21.483C72.53 21.483 72.722 21.291 72.722 20.907C72.722 20.715 72.722 20.523 72.53 20.523C72.338 20.523 72.338 20.523 72.338 20.331V19.371L51.979 9.384L8.576 34.543V35.503C8.768 35.695 9.152 35.887 9.152 36.271C9.152 36.463 8.96 36.655 8.96 36.655C8.96 36.655 8.768 36.847 8.576 36.847V37.423L10.881 38.96L11.265 38.384L11.457 38.192C11.457 38.192 11.649 38.192 11.649 38.384L12.225 39.728L15.874 41.841L16.258 41.264L16.45 41.072C16.45 41.072 16.642 41.072 16.642 41.264L17.026 42.417L20.676 44.529L21.059 43.953L21.251 43.761C21.251 43.761 21.443 43.761 21.443 43.953L21.635 45.105Z" fill="black"/>
<path fill-rule="evenodd" clip-rule="evenodd" d="M28.742 46.6419L72.722 20.5229V22.8279L28.55 49.33L21.636 45.1039L21.252 44.9119L20.676 44.7199L16.835 42.4159L16.258 42.0319L15.874 41.8399L12.034 39.5349L11.265 39.3429L11.073 39.1509L8.384 37.4219V36.462C8.768 36.462 8.96 36.078 8.96 35.886L28.742 46.6409V46.6419Z" fill="#FFF7ED"/>
<path d="M28.55 49.7151C28.358 49.7151 28.358 49.7151 28.55 49.7151L20.483 44.9131L10.881 39.3441L8.384 37.8081C8.384 37.8081 8.384 37.6151 8.192 37.6151V36.4631H8.576C8.768 36.4631 8.768 36.2711 8.768 36.0791C8.768 36.0791 8.768 35.8871 8.96 35.8871H9.153L28.742 46.6421L72.529 20.3301H72.721L72.913 20.5221V22.8271C72.913 22.8271 72.913 23.0191 72.721 23.0191L28.55 49.7151ZM8.576 37.4231L12.033 39.5361L21.636 45.1061L28.55 49.3311L72.53 22.8281V20.9081L28.933 46.8331H28.741L9.152 36.2711C9.14522 36.3707 9.10259 36.4645 9.03199 36.5351C8.96139 36.6057 8.86761 36.6483 8.768 36.6551C8.768 36.6551 8.576 36.6551 8.576 36.8471V37.4231Z" fill="black"/>
<path d="M72.436 20.3601L28.528 46.4771L28.725 46.8071L72.633 20.6901L72.436 20.3601ZM72.55 21.5661L28.414 48.4201L28.614 48.7481L72.748 21.8941L72.548 21.5661H72.55Z" fill="black"/>
<path opacity="0.26" d="M31.238 23.2121C31.238 23.2121 31.046 23.2121 31.238 23.2121C31.046 23.0201 31.046 23.0201 31.046 22.8281C31.43 22.2521 32.198 21.8681 33.158 21.4831C34.118 21.0991 35.463 20.5231 36.808 19.1791C38.536 17.6421 40.648 17.0661 42.569 16.4901C44.105 16.1061 45.449 15.7221 46.218 14.9541C48.523 12.6491 50.251 12.0731 51.788 11.4971C52.748 11.1131 53.708 10.7291 54.284 9.96009C54.284 9.96009 54.476 9.76809 54.668 9.96009C54.668 9.96009 54.86 10.1521 54.668 10.3441C53.9 11.1131 52.94 11.4971 51.98 11.8811C50.635 12.4571 48.715 13.0331 46.602 15.3381C45.642 16.2981 44.297 16.6821 42.761 17.0661C41.033 17.4501 38.92 18.0261 37.191 19.5631C35.847 20.9071 34.503 21.4831 33.351 22.0601C32.391 22.4441 31.814 22.6361 31.238 23.2121ZM10.496 35.8871C10.304 35.8871 10.304 35.6951 10.304 35.5031C13.569 30.3181 15.49 30.3181 17.602 30.3181C18.755 30.3181 19.907 30.3181 21.252 29.5491C22.02 29.1651 22.98 28.7811 24.324 28.3971C26.821 27.6291 29.894 26.6691 31.814 24.7481C32.198 24.3641 32.582 24.1721 32.966 24.1721C33.543 23.7881 34.119 23.5961 34.311 22.8281C34.311 22.6361 34.503 22.6361 34.503 22.6361C34.695 22.6361 34.695 22.8281 34.695 22.8281C34.503 23.7881 33.735 24.1721 32.966 24.3641C32.582 24.5561 32.198 24.7481 32.006 24.9401C30.086 27.0531 26.821 28.0131 24.324 28.7811L21.444 29.7411C19.907 30.5101 18.754 30.5101 17.602 30.5101C15.682 30.7021 13.762 30.7021 10.496 35.8871C10.688 35.6951 10.496 35.8871 10.496 35.8871ZM16.258 38.9601C16.258 38.9601 16.066 38.9601 16.066 38.7681C16.066 38.5761 16.066 38.5761 16.258 38.5761C16.642 38.3841 17.218 37.8071 17.794 37.0391C19.139 35.1191 21.444 32.4301 26.244 31.2781C26.437 31.2781 28.549 29.7411 28.741 29.7411C28.741 29.7411 28.933 29.5491 28.933 29.7411C28.933 29.7411 29.125 29.9331 28.933 30.1251C28.741 30.3181 26.437 31.8541 26.245 31.8541C21.443 32.8141 19.331 35.6951 17.986 37.4241C17.218 38.0001 16.834 38.5761 16.258 38.9601ZM29.894 33.3901C29.702 33.3901 29.51 33.3901 29.51 33.1981C29.125 32.8141 29.894 31.8541 32.006 29.5491C32.966 28.3971 34.119 27.2451 34.887 26.0931C36.807 23.5961 39.88 22.2521 42.185 21.2911C43.145 20.9071 44.105 20.5231 44.49 20.1391H44.874V20.5231C44.297 20.9071 43.529 21.2911 42.377 21.8671C40.264 22.8271 37.192 24.1721 35.271 26.6691C34.311 27.8211 33.159 29.1651 32.198 30.1261C31.046 31.4701 29.702 33.0061 29.702 33.1981C29.702 33.1981 29.894 33.1981 31.43 32.6221C32.583 32.0461 33.159 31.4701 33.927 30.7021C34.887 29.5491 35.847 28.3971 38.92 27.6291C39.112 27.6291 40.264 26.6691 41.609 25.9001C43.913 24.3641 46.986 22.2521 48.331 21.8671C50.059 21.2911 51.211 19.1791 51.211 17.8341C51.211 17.4501 51.211 17.2581 51.019 17.0661C50.827 17.0661 50.635 16.8741 49.675 17.6421H49.291V17.2581C50.059 16.6821 50.635 16.4901 51.019 16.6821C51.211 16.8741 51.403 17.0661 51.403 17.8341C51.211 19.1791 50.059 21.4841 48.139 22.0601C46.794 22.6361 43.721 24.5561 41.417 26.0931C39.688 27.2451 38.92 27.8211 38.728 27.8211C35.848 28.5891 34.888 29.7411 33.927 30.7011C33.351 31.4701 32.583 32.2381 31.43 32.8141C30.662 33.1981 30.278 33.3911 29.894 33.3911V33.3901Z" fill="black"/>
<path opacity="0.26" d="M27.59 36.6549C27.205 36.6549 26.821 36.6549 26.437 36.2709C26.053 36.0789 25.861 35.5029 25.861 34.9269C25.861 33.1979 27.013 32.6219 27.973 32.0459C28.933 31.4699 29.893 31.0859 30.086 29.7409C30.278 28.7809 32.583 26.8609 33.735 25.9009H34.119V26.2849C32.199 27.8209 30.854 29.1649 30.662 29.7409C30.47 31.2779 29.318 31.8539 28.358 32.4309C27.398 33.0059 26.437 33.3909 26.437 34.9269C26.437 35.5029 26.629 35.6949 26.821 35.8869C27.589 36.4629 29.126 35.8869 30.471 35.5029C31.238 35.3109 31.814 35.1189 32.391 35.1189C33.543 34.9269 34.887 33.5819 36.424 32.0459C38.92 29.5489 41.994 26.4759 46.41 26.2849C46.602 26.2849 46.602 26.2849 46.602 26.4769C46.602 26.6689 46.602 26.6689 46.41 26.6689C42.185 26.8609 39.112 29.9329 36.808 32.4299C35.271 33.9669 33.927 35.3099 32.583 35.5029C32.007 35.5029 31.43 35.6949 30.854 35.8869C29.51 36.4629 28.55 36.6549 27.589 36.6549H27.59Z" fill="black"/>
<path opacity="0.26" d="M22.596 42.2249C22.596 42.2249 22.404 42.2249 22.404 42.0329C22.404 41.8409 22.404 41.8409 22.596 41.8409C24.132 41.4569 25.092 40.6879 25.861 40.1119C27.013 39.1519 28.357 37.9999 31.814 37.4229C35.271 36.8469 37.384 34.9269 39.688 32.6229C41.033 31.0859 42.953 30.5099 44.682 29.9329C47.178 29.1649 49.482 28.3969 49.482 25.3239C49.482 23.9799 52.748 19.5629 54.092 18.6019H54.284V18.7949C52.94 19.5629 49.867 23.9799 49.867 25.1319C49.675 28.3969 47.37 29.1649 44.682 30.1259C42.953 30.7019 41.032 31.2779 39.88 32.8139C37.576 35.3109 35.271 37.2309 31.814 37.8079C28.549 38.3839 27.205 39.3439 26.053 40.3039C25.093 41.0719 24.324 41.8409 22.596 42.2239V42.2249ZM53.9 15.1459C53.516 15.1459 53.324 15.1459 53.132 14.9539C52.94 14.7619 52.748 14.5689 52.748 14.3769C52.748 13.9929 53.132 13.6089 53.9 13.2249C54.093 13.2249 54.477 13.0329 54.669 12.8409C54.861 12.6489 55.245 12.4569 55.629 12.2649C55.821 12.2649 55.821 12.2649 55.821 12.4569C55.821 12.6489 55.821 12.6489 55.629 12.6489C55.437 12.8409 55.053 13.0329 54.861 13.0329C54.477 13.2249 54.093 13.4169 53.901 13.6089C53.324 13.8009 53.132 14.1849 53.132 14.3769C53.132 14.5689 53.324 14.5689 53.324 14.5689C53.9 14.9539 56.013 14.5689 58.51 12.4569H58.894V12.8409C56.781 14.3769 55.053 15.1459 53.9 15.1459Z" fill="black"/>
<path opacity="0.26" d="M33.35 39.3439C33.159 39.1519 33.159 38.9599 33.159 38.9599C34.503 38.1919 35.271 37.8079 36.039 37.4229C37.192 36.8469 38.344 36.4629 40.649 34.5429C42.569 33.0059 44.682 32.4299 46.41 31.8539C47.755 31.4699 48.715 31.0859 49.099 30.7019C50.827 28.2049 53.324 26.6689 55.245 25.7079C56.589 24.9399 57.933 24.1719 58.509 23.4039C59.469 22.0589 59.662 21.4839 59.662 20.7149C59.854 19.5629 60.046 18.6019 63.695 15.3379H64.079V15.7219C60.622 18.9869 60.429 19.7549 60.238 20.9069C60.046 21.4829 59.854 22.2519 58.894 23.5959C58.317 24.5559 56.973 25.3239 55.437 26.0929C53.324 27.2449 51.02 28.5889 49.483 31.0859C49.099 31.8539 47.947 32.0459 46.603 32.4299C44.873 33.0059 42.761 33.5819 40.841 35.1189C38.536 37.0389 37.384 37.6149 36.231 37.9989C35.655 37.9989 34.695 38.3839 33.351 39.3439C33.543 39.3439 33.351 39.3439 33.351 39.3439H33.35Z" fill="black"/>
<path d="M28.55 49.715C28.357 49.715 28.357 49.715 28.55 49.715L20.483 44.913L10.881 39.344L8.384 37.808C8.384 37.808 8.384 37.615 8.192 37.615V36.463H8.576V36.271C8.576 36.079 8.384 36.079 8.192 35.887L8 35.695V34.543C8 34.543 8 34.351 8.192 34.351L51.788 9H51.98L72.72 19.37L72.912 19.563V20.523C73.104 20.715 73.104 20.907 73.104 21.291C73.104 21.675 72.912 21.867 72.912 21.867V23.02C72.912 23.02 72.912 23.212 72.72 23.212L28.549 49.715H28.55ZM8.575 37.423L11.072 38.96L21.635 45.105L28.356 49.139V48.179C28.356 47.986 28.356 47.986 28.548 47.986C28.74 47.986 28.932 47.986 29.125 47.602C29.125 47.41 29.125 47.026 28.548 46.834L28.356 46.642V45.298L8.768 34.735V35.311C8.96 35.503 9.344 35.695 9.344 36.079C9.344 36.271 9.152 36.463 9.152 36.463C9.152 36.463 8.96 36.655 8.768 36.655L8.576 37.423H8.575ZM28.741 48.37V49.139L72.53 22.828V21.483C72.53 21.483 72.722 21.291 72.722 20.907C72.722 20.715 72.722 20.523 72.53 20.523C72.338 20.523 72.338 20.523 72.338 20.331V19.563L28.74 45.298V46.45C29.317 46.642 29.317 47.218 29.317 47.602C29.125 47.986 28.932 48.178 28.74 48.37H28.741ZM28.357 44.914C28.549 44.914 28.549 44.914 28.357 44.914L72.145 19.563L51.98 9.384L8.768 34.543L28.358 44.913L28.357 44.914Z" fill="black"/>
</svg>
