<svg width="50" height="50" viewBox="0 0 50 50" fill="none" xmlns="http://www.w3.org/2000/svg">
<path d="M17.7453 47.465C14.7371 47.4646 11.7966 46.5723 9.29559 44.9009C6.79453 43.2295 4.84521 40.854 3.69409 38.0748C2.54297 35.2956 2.24175 32.2376 2.82851 29.2872C3.41527 26.3368 4.86366 23.6267 6.99055 21.4994C14.1696 14.3204 24.896 9.22848 32.627 6.22105C37.583 4.28257 42.6575 2.66194 47.8196 1.36902C47.9314 1.34311 48.0479 1.34608 48.1581 1.37765C48.2684 1.40922 48.3689 1.46835 48.45 1.54946C48.5311 1.63058 48.5902 1.73101 48.6218 1.84129C48.6534 1.95157 48.6563 2.06808 48.6304 2.17983C47.3377 7.34223 45.717 12.4169 43.7784 17.3731C40.7716 25.1062 35.6797 35.8312 28.5007 43.0096C27.0916 44.4265 25.4154 45.5498 23.5693 46.3146C21.7231 47.0794 19.7436 47.4704 17.7453 47.465ZM47.0426 2.95686C41.9101 4.29334 19.8311 10.5704 7.94595 22.4548C5.34692 25.0539 3.8868 28.5789 3.8868 32.2545C3.8868 35.9301 5.34692 39.4551 7.94595 42.0542C10.545 44.6532 14.07 46.1133 17.7456 46.1133C21.4212 46.1133 24.9462 44.6532 27.5453 42.0542C39.4297 30.1697 45.7068 8.08929 47.0426 2.95686Z" fill="#DF2614"/>
<path d="M2.02701 48.6486C1.89339 48.6486 1.76278 48.6089 1.6517 48.5347C1.54061 48.4604 1.45403 48.3549 1.4029 48.2315C1.35177 48.108 1.33839 47.9722 1.36445 47.8412C1.39051 47.7101 1.45484 47.5897 1.5493 47.4952L47.4953 1.54929C47.6227 1.42621 47.7934 1.35811 47.9705 1.35964C48.1477 1.36118 48.3172 1.43224 48.4424 1.55752C48.5677 1.6828 48.6388 1.85226 48.6403 2.02942C48.6418 2.20658 48.5737 2.37726 48.4507 2.50469L2.50471 48.4506C2.37803 48.5774 2.20619 48.6486 2.02701 48.6486Z" fill="#DF2614"/>
<path d="M42.3818 19.7452C42.3469 19.7451 42.3122 19.7424 42.2777 19.7371L32.3575 18.2073C32.2155 18.1855 32.0842 18.1189 31.9826 18.0173C31.881 17.9158 31.8145 17.7845 31.7926 17.6425L30.2629 7.72221C30.2477 7.63368 30.2503 7.54301 30.2706 7.45551C30.2909 7.36801 30.3284 7.28543 30.381 7.2126C30.4335 7.13977 30.5001 7.07815 30.5768 7.03135C30.6534 6.98454 30.7386 6.9535 30.8274 6.94002C30.9163 6.92654 31.0069 6.93091 31.094 6.95286C31.181 6.97481 31.2629 7.01391 31.3347 7.06787C31.4065 7.12183 31.4668 7.18956 31.5122 7.26711C31.5575 7.34465 31.5869 7.43046 31.5987 7.51951L33.0527 16.9513L42.4838 18.4046C42.6526 18.4299 42.8057 18.5181 42.9121 18.6516C43.0186 18.785 43.0705 18.9538 43.0576 19.124C43.0447 19.2943 42.9678 19.4533 42.8424 19.5691C42.7171 19.685 42.5525 19.7491 42.3818 19.7486V19.7452Z" fill="#DF2614"/>
<path d="M38.8993 27.4109C38.8647 27.4108 38.8301 27.4081 38.7959 27.4028L25.254 25.3082C25.1122 25.2863 24.9809 25.2199 24.8794 25.1184C24.7778 25.017 24.7112 24.8858 24.6892 24.744L22.5946 11.2021C22.581 11.1144 22.5848 11.0249 22.6059 10.9386C22.6269 10.8524 22.6647 10.7712 22.7171 10.6995C22.7695 10.6279 22.8355 10.5673 22.9114 10.5212C22.9872 10.4751 23.0714 10.4444 23.1591 10.4308C23.3363 10.4034 23.517 10.4475 23.6617 10.5533C23.7333 10.6058 23.7939 10.6718 23.84 10.7476C23.8861 10.8234 23.9168 10.9076 23.9304 10.9953L25.9459 24.0541L39.002 26.0676C39.17 26.0939 39.3219 26.1825 39.4274 26.3158C39.5329 26.449 39.5843 26.6172 39.5714 26.7867C39.5584 26.9562 39.482 27.1146 39.3575 27.2303C39.2329 27.346 39.0693 27.4105 38.8993 27.4109Z" fill="#DF2614"/>
<path d="M34.5946 34.9433C34.56 34.9432 34.5255 34.9407 34.4912 34.9359L18.1446 32.4203C18.0026 32.3985 17.8713 32.3319 17.7697 32.2303C17.6682 32.1287 17.6016 31.9974 17.5797 31.8555L15.0676 15.5082C15.0506 15.4189 15.0519 15.3272 15.0712 15.2385C15.0905 15.1497 15.1275 15.0658 15.18 14.9917C15.2325 14.9175 15.2994 14.8548 15.3768 14.8071C15.4541 14.7594 15.5402 14.7278 15.63 14.7142C15.7198 14.7006 15.8114 14.7052 15.8994 14.7278C15.9873 14.7503 16.0699 14.7904 16.142 14.8456C16.2141 14.9008 16.2744 14.97 16.3192 15.049C16.364 15.128 16.3924 15.2152 16.4027 15.3055L18.8432 31.1629L34.7007 33.6028C34.8686 33.629 35.0205 33.7176 35.1261 33.8509C35.2316 33.9842 35.283 34.1523 35.27 34.3218C35.2571 34.4914 35.1807 34.6497 35.0561 34.7654C34.9316 34.8811 34.768 34.9456 34.598 34.946L34.5946 34.9433Z" fill="#DF2614"/>
<path d="M28.9243 42.271C28.8895 42.2709 28.8547 42.2682 28.8203 42.2629L11.0406 39.527C10.8986 39.5052 10.7673 39.4386 10.6657 39.337C10.5641 39.2355 10.4976 39.1042 10.4757 38.9622L7.73718 21.1797C7.71399 21.0043 7.76055 20.8268 7.86685 20.6853C7.97315 20.5438 8.13071 20.4497 8.30566 20.4232C8.48062 20.3966 8.659 20.4398 8.80248 20.5433C8.94597 20.6469 9.0431 20.8026 9.07299 20.977L11.7358 38.2635L29.0264 40.927C29.1952 40.9523 29.3482 41.0405 29.4547 41.174C29.5611 41.3074 29.6131 41.4762 29.6002 41.6464C29.5873 41.8167 29.5104 41.9757 29.385 42.0915C29.2596 42.2074 29.0951 42.2715 28.9243 42.271Z" fill="#DF2614"/>
</svg>
