<svg width="50" height="50" viewBox="0 0 50 50" fill="none" xmlns="http://www.w3.org/2000/svg">
<path d="M17.5892 48.6486C17.4945 48.6491 17.4007 48.6296 17.314 48.5915C17.2273 48.5534 17.1495 48.4975 17.0858 48.4274C17.0221 48.3573 16.9739 48.2746 16.9442 48.1847C16.9145 48.0947 16.904 47.9996 16.9135 47.9053L18.873 28.4803L12.2872 29.7472C12.1753 29.7687 12.0599 29.7615 11.9515 29.7264C11.8432 29.6913 11.7455 29.6294 11.6675 29.5464C11.5895 29.4634 11.5337 29.3621 11.5054 29.2518C11.477 29.1415 11.477 29.0258 11.5054 28.9155L17.6588 5.0675C17.6908 4.94362 17.7573 4.83137 17.8506 4.74381C17.9439 4.65625 18.0601 4.59698 18.1858 4.5729L34.8649 1.36344C34.9802 1.3413 35.0993 1.34959 35.2104 1.38748C35.3215 1.42538 35.4208 1.49158 35.4986 1.57956C35.5763 1.66754 35.6298 1.77427 35.6538 1.88921C35.6777 2.00416 35.6713 2.12336 35.6351 2.23507L29.627 20.7891L37.7068 19.2351C37.8397 19.2095 37.9772 19.2244 38.1015 19.2779C38.2258 19.3314 38.3312 19.421 38.404 19.5351C38.4768 19.6492 38.5137 19.7825 38.5098 19.9178C38.506 20.0531 38.4616 20.1841 38.3824 20.2938L18.1372 48.3682C18.0746 48.455 17.9922 48.5257 17.897 48.5744C17.8017 48.6231 17.6962 48.6486 17.5892 48.6486ZM19.6426 26.9695C19.737 26.9695 19.8304 26.9893 19.9167 27.0276C20.003 27.0659 20.0803 27.1219 20.1437 27.1919C20.207 27.262 20.255 27.3445 20.2845 27.4342C20.3139 27.5239 20.3243 27.6188 20.3149 27.7128L18.5135 45.5344L36.2912 20.883L28.7595 22.3324C28.6441 22.3545 28.5251 22.3462 28.4139 22.3083C28.3028 22.2704 28.2035 22.2042 28.1257 22.1162C28.048 22.0283 27.9945 21.9215 27.9705 21.8066C27.9466 21.6916 27.953 21.5724 27.9892 21.4607L33.9973 2.90534L18.8622 5.8175L13.0865 28.2182L19.5149 26.9817C19.5569 26.9733 19.5997 26.9692 19.6426 26.9695Z" fill="#DF2614"/>
<path d="M22.1142 48.8101C21.9786 48.8102 21.8462 48.7695 21.7341 48.6933C21.6219 48.6171 21.5353 48.5089 21.4855 48.3828C21.4356 48.2568 21.4249 48.1186 21.4546 47.9864C21.4843 47.8541 21.5531 47.7338 21.652 47.6412L27.0507 42.5885C27.1815 42.466 27.3556 42.4005 27.5347 42.4064C27.7138 42.4123 27.8833 42.4891 28.0057 42.6199C28.1282 42.7507 28.1937 42.9248 28.1878 43.1039C28.1819 43.283 28.1051 43.4525 27.9743 43.5749L22.5764 48.6277C22.4511 48.745 22.2858 48.8102 22.1142 48.8101Z" fill="#DF2614"/>
<path d="M14.527 48.81C14.4047 48.8102 14.2845 48.7772 14.1795 48.7145C14.0744 48.6518 13.9883 48.5617 13.9304 48.4539L10.5804 42.2114C10.4957 42.0534 10.4771 41.8682 10.5289 41.6966C10.5806 41.525 10.6985 41.3809 10.8564 41.2961C11.0144 41.2114 11.1996 41.1928 11.3712 41.2446C11.5428 41.2964 11.6869 41.4142 11.7716 41.5722L15.1216 47.8154C15.1767 47.9183 15.2042 48.0336 15.2015 48.1503C15.1987 48.2669 15.1658 48.3809 15.1059 48.481C15.046 48.5812 14.9612 48.6641 14.8598 48.7218C14.7584 48.7794 14.6437 48.8098 14.527 48.81Z" fill="#DF2614"/>
<path d="M29.2568 42.0224C29.1229 42.0225 28.9921 41.9829 28.8808 41.9085C28.7695 41.8341 28.6829 41.7284 28.6318 41.6047C28.5807 41.481 28.5674 41.3449 28.5938 41.2137C28.6201 41.0825 28.6849 40.9621 28.7798 40.8677L29.6122 40.0393C29.7392 39.9129 29.9113 39.8421 30.0905 39.8425C30.2698 39.843 30.4415 39.9146 30.5679 40.0417C30.6944 40.1687 30.7651 40.3408 30.7647 40.52C30.7642 40.6993 30.6926 40.871 30.5656 40.9974L29.7298 41.8244C29.6042 41.95 29.4343 42.0211 29.2568 42.0224Z" fill="#DF2614"/>
<path d="M10.0865 40.5406C9.96412 40.5409 9.84398 40.5079 9.7389 40.4452C9.63382 40.3824 9.54775 40.2924 9.48986 40.1845L9.05405 39.3683C8.96929 39.2104 8.95075 39.0252 9.00252 38.8536C9.05428 38.6819 9.1721 38.5379 9.33007 38.4531C9.48803 38.3684 9.6732 38.3498 9.84483 38.4016C10.0165 38.4534 10.1605 38.5712 10.2453 38.7291L10.6831 39.5454C10.725 39.6236 10.7512 39.7093 10.76 39.7976C10.7688 39.8859 10.7601 39.9751 10.7344 40.06C10.7088 40.145 10.6666 40.2241 10.6104 40.2927C10.5542 40.3614 10.485 40.4183 10.4068 40.4602C10.3084 40.5134 10.1983 40.541 10.0865 40.5406Z" fill="#DF2614"/>
</svg>
