<svg width="80" height="80" viewBox="0 0 80 80" fill="none" xmlns="http://www.w3.org/2000/svg">
<path fill-rule="evenodd" clip-rule="evenodd" d="M8.19 55.31V56.807C8.382 56.994 8.956 57.181 8.956 57.555C8.956 57.929 8.573 57.929 8.191 57.929V59.238L10.676 60.734L11.059 59.986L11.632 61.295L15.456 63.539L15.838 62.791L16.22 64.1L20.044 66.344L20.617 65.596L21 66.905L27.882 71.019L72.426 45.586V44.464C72.617 44.277 72.617 44.277 72.617 43.904C72.617 43.716 72.426 43.342 72.426 43.342V41.66L51.97 31.187L8.19 55.311V55.31Z" fill="#F2E9DF"/>
<path d="M27.882 71.206C27.882 71.206 27.692 71.206 27.882 71.206L20.809 67.092V66.905L20.426 65.97L20.236 66.344C20.236 66.344 20.044 66.531 20.044 66.344L16.221 64.1V63.913L16.029 63.165L15.839 63.539C15.839 63.726 15.647 63.726 15.647 63.539L11.823 61.295V61.108L11.441 60.173L11.25 60.547L11.059 60.734H10.868L8.382 59.238L8.192 59.051V57.555H8.765V57.368C8.765 57.181 8.382 56.994 8.191 56.807L8 56.62V55.124C8 55.124 8 54.937 8.191 54.937L51.971 31H52.161L72.617 41.472L72.808 41.659V43.155C73 43.342 73 43.529 73 43.903C73 44.277 72.808 44.464 72.808 44.464V45.586C72.808 45.586 72.808 45.773 72.618 45.773L27.881 71.206H27.882ZM21 66.718L27.691 70.832L71.853 45.586V44.277C71.853 44.277 72.043 44.09 72.043 43.903C72.043 43.716 72.043 43.529 71.853 43.529C71.661 43.529 71.661 43.529 71.661 43.342V41.846L51.971 31.561L8.381 55.498V56.807C8.573 56.994 9.146 57.181 9.146 57.555C9.146 57.742 8.955 57.929 8.955 57.929C8.764 58.116 8.573 58.116 8.573 58.116V59.238L10.676 60.547L11.058 59.986L11.249 59.799C11.249 59.799 11.44 59.799 11.44 59.986L12.014 61.295L15.646 63.539L16.028 62.978L16.22 62.791C16.22 62.791 16.41 62.791 16.41 62.978L16.793 64.1L20.425 66.157L20.808 65.596L20.998 65.409C20.998 65.409 21.19 65.409 21.19 65.596L21 66.718Z" fill="black"/>
<path d="M27.882 71.206C27.882 71.206 27.692 71.206 27.882 71.206C27.692 71.206 27.692 71.206 27.882 71.206C27.692 71.206 27.692 71.206 27.882 71.206C27.692 71.206 27.692 71.206 27.882 71.206L20.809 67.092V66.905L20.426 65.97L20.236 66.344C20.236 66.344 20.044 66.531 20.044 66.344L16.221 64.1V63.913L16.029 63.165L15.839 63.539C15.839 63.726 15.647 63.726 15.647 63.539L11.823 61.295V61.108L11.441 60.173L11.25 60.547L11.059 60.734H10.868L8.382 59.238L8.192 59.051V57.555H8.765V57.368C8.765 57.181 8.382 56.994 8.191 56.807L8 56.62V54.937L51.78 31H51.97L72.426 41.472L72.617 41.659V43.155C72.808 43.342 72.808 43.529 72.808 43.903C72.808 44.277 72.618 44.464 72.618 44.464V45.586C72.618 45.586 72.618 45.773 72.426 45.773L27.882 71.206ZM21 66.718L27.5 70.645V69.71C27.5 69.523 27.5 69.523 27.691 69.523C27.882 69.523 28.073 69.523 28.265 69.149C28.265 68.962 28.265 68.588 27.691 68.401L27.5 68.214V66.157L8.19 55.685V56.62C8.381 56.807 8.955 56.994 8.955 57.368C8.955 57.555 8.764 57.742 8.764 57.742C8.573 57.929 8.381 57.929 8.381 57.929V59.051L10.484 60.36L10.867 59.799L11.057 59.612C11.057 59.612 11.249 59.612 11.249 59.799L11.822 61.108L15.455 63.352L15.837 62.791L16.028 62.604C16.028 62.604 16.22 62.604 16.22 62.791L16.602 63.913L20.234 65.97L20.617 65.409L20.807 65.222C20.807 65.222 20.999 65.222 20.999 65.409V66.718H21ZM28.073 69.897V70.645L72.043 45.586V44.277C72.043 44.277 72.235 44.09 72.235 43.903C72.235 43.716 72.235 43.529 72.044 43.529C71.853 43.529 71.853 43.529 71.853 43.342V42.033L27.883 66.157V68.027C28.456 68.214 28.456 68.775 28.456 69.149C28.646 69.709 28.265 69.897 28.073 69.897ZM27.883 65.783L71.853 41.846L51.97 31.561L8.574 55.311L27.882 65.783H27.883Z" fill="black"/>
<path d="M72.402 43.179L27.945 68.092L28.135 68.416L72.592 43.503L72.402 43.179ZM28.073 70.084L27.691 69.71L72.235 44.277L72.426 44.651L28.073 70.084Z" fill="black"/>
<path opacity="0.26" d="M30.94 44.6511C30.75 44.4641 30.75 44.4641 30.75 44.2771C31.323 43.7171 31.896 43.3421 32.852 42.9681C33.808 42.5941 35.147 42.0331 36.485 40.7241C38.205 39.2281 40.308 38.6671 42.22 38.2941C43.75 37.9191 45.088 37.5451 45.852 36.7971C48.146 34.7401 49.867 33.9921 51.396 33.4311C52.352 33.0571 53.308 32.6831 53.882 31.9351H54.264V32.3091C53.499 33.0571 52.544 33.4311 51.588 33.8051C50.249 34.3661 48.338 34.9271 46.235 36.9851C45.279 37.9191 43.941 38.1061 42.411 38.4801C40.691 38.8541 38.588 39.4151 36.867 40.9111C35.337 42.2211 34.191 42.7811 33.044 43.1551C32.279 43.9031 31.514 44.0901 30.941 44.6511C31.131 44.6511 31.131 44.6511 30.941 44.6511H30.94ZM10.294 56.6201C10.103 56.6201 10.103 56.6201 10.294 56.6201C10.103 56.6201 10.103 56.4331 10.103 56.2461C13.544 51.1961 15.456 51.1961 17.559 51.3831C18.706 51.3831 19.853 51.5711 21.191 50.8231C22.1524 50.3456 23.1859 50.0297 24.25 49.8881C26.735 49.1401 29.794 48.3911 31.897 46.5211C32.279 46.1471 32.662 46.1471 33.044 45.9611C33.618 45.7731 34.382 45.3991 34.382 44.6511C34.382 44.4641 34.573 44.4641 34.573 44.4641C34.765 44.4641 34.765 44.6511 34.765 44.6511C34.573 45.5861 33.809 45.9611 33.044 46.1471C32.662 46.3341 32.279 46.5211 32.088 46.7081C29.985 48.5781 26.926 49.5141 24.25 50.2611C23.103 50.6351 21.956 50.8221 21.382 51.1961C19.852 51.9441 18.706 51.9441 17.559 51.9441C15.456 51.7571 13.544 51.5711 10.294 56.6201ZM15.838 59.6121C15.838 59.6121 15.647 59.6121 15.647 59.4251C15.647 59.2381 15.647 59.2381 15.838 59.2381C16.22 59.0511 16.794 58.4901 17.368 57.7421C18.897 55.8721 21 53.2541 25.97 52.3191C26.162 52.3191 28.265 51.0091 28.456 50.8221C28.456 50.8221 28.646 50.6351 28.646 50.8221C28.646 50.8221 28.838 51.0101 28.646 51.1961C28.456 51.3841 26.162 52.8801 25.97 52.8801C21.191 53.8151 19.088 56.4331 17.559 58.1161C16.985 58.8641 16.412 59.4251 15.839 59.6121H15.838ZM29.603 54.5631C29.412 54.5631 29.22 54.5631 29.22 54.3751C28.838 54.0021 29.794 53.0661 31.706 50.8221C32.662 49.8871 33.809 48.5781 34.765 47.4561C36.676 45.0261 39.735 43.7161 42.029 42.7811C42.985 42.4071 43.941 42.0331 44.323 41.6591H44.706V42.0331C44.132 42.4071 43.367 42.7811 42.22 43.1551C40.118 44.0901 37.059 45.3991 35.147 47.6431C34.191 48.7651 33.044 49.8871 32.088 51.0091C30.941 52.3191 29.603 53.6271 29.603 54.0011C29.603 54.0011 29.794 54.0011 31.323 53.4411C32.471 52.8791 33.044 52.3181 33.809 51.5711C34.765 50.4481 35.721 49.3261 38.779 48.5781C38.97 48.5781 40.117 47.8301 41.456 47.0821C43.75 45.5861 46.809 43.7161 48.338 43.1551C50.058 42.5951 51.206 40.5371 51.397 39.4151C51.397 39.0411 51.397 38.8551 51.206 38.6671C51.014 38.6671 50.823 38.4801 49.867 39.0411H49.677V38.8541C50.441 38.2941 51.014 38.1061 51.397 38.4801C51.588 38.6671 51.779 38.8541 51.779 39.6021C51.588 40.9121 50.249 43.1551 48.529 43.7161C47.191 44.0901 44.132 46.1471 41.839 47.4561C40.118 48.5781 39.353 48.9521 39.162 49.1391C36.294 49.7001 35.338 50.8221 34.382 51.9441C33.809 52.6921 33.044 53.4401 31.706 54.0011C30.368 54.3761 29.986 54.5631 29.603 54.5631Z" fill="black"/>
<path opacity="0.26" d="M27.308 57.7421C26.926 57.7421 26.353 57.7421 26.162 57.3681C25.779 57.1811 25.588 56.6201 25.588 56.0581C25.588 54.3761 26.735 53.8151 27.882 53.4411C28.838 52.8801 29.794 52.5051 29.985 51.1961C30.176 50.2621 32.47 48.3921 33.617 47.6431H34V48.0171C32.088 49.5131 30.558 50.8221 30.558 51.3831C30.368 52.8801 29.22 53.4411 28.264 54.0021C27.117 54.5621 26.353 54.9371 26.353 56.2461C26.353 56.8061 26.543 56.9941 26.735 57.1811C27.5 57.7411 29.029 57.1811 30.367 56.8071C31.132 56.6201 31.706 56.4331 32.279 56.4331C33.426 56.2461 34.764 54.9371 36.294 53.6281C38.779 51.1971 42.029 48.3911 46.234 48.0181C46.426 48.0181 46.426 48.0181 46.426 48.2041C46.426 48.3911 46.426 48.3911 46.235 48.3911C42.029 48.5791 38.97 51.5711 36.485 53.8151C34.955 55.3111 33.617 56.6201 32.279 56.8071C31.706 56.8071 31.132 56.9941 30.559 57.1811C29.22 57.3681 28.073 57.7411 27.309 57.7411L27.308 57.7421Z" fill="black"/>
<path opacity="0.26" d="M22.147 62.978C22.147 62.978 21.956 62.978 21.956 62.791C21.956 62.604 21.956 62.604 22.146 62.604C23.676 62.23 24.632 61.669 25.588 60.921C26.735 59.986 28.264 59.051 31.514 58.49C34.956 57.928 37.25 56.245 39.544 53.814C40.882 52.318 42.794 51.757 44.706 51.196C47.191 50.448 49.485 49.7 49.676 46.896C49.676 45.586 53.117 41.286 54.456 40.537H54.646V40.724C53.308 41.472 50.058 45.774 50.058 46.708C49.868 49.888 47.382 50.635 44.897 51.383C43.177 51.944 41.264 52.505 39.927 53.814C37.632 56.245 35.337 57.928 31.706 58.489C28.456 59.051 27.117 59.986 25.97 60.921C24.823 62.043 23.867 62.604 22.147 62.978ZM53.882 37.171C53.499 37.171 53.308 37.171 53.117 36.984C52.926 36.797 52.735 36.61 52.735 36.424C52.735 36.049 53.117 35.675 53.882 35.301C54.072 35.301 54.455 35.114 54.646 34.927C55.029 34.74 55.22 34.553 55.602 34.366C55.794 34.366 55.794 34.366 55.794 34.553C55.794 34.74 55.794 34.74 55.602 34.74C55.412 34.74 55.029 34.927 54.838 35.114C54.455 35.301 54.073 35.488 53.882 35.675C53.308 35.862 52.926 36.236 52.926 36.423C52.926 36.61 53.117 36.61 53.117 36.61C53.691 36.984 55.794 36.61 58.279 34.553H58.661V34.927C56.749 36.423 55.029 37.171 53.881 37.171H53.882Z" fill="black"/>
<path opacity="0.26" d="M33.044 60.3599C32.853 60.3599 32.853 60.3599 33.044 60.3599C32.853 60.1729 32.853 59.9859 32.853 59.9859C34.191 59.2379 34.956 58.8639 35.72 58.4899C36.867 57.9289 38.014 57.5549 40.309 55.6849C42.22 54.1889 44.514 53.6279 46.235 53.0669C47.573 52.6929 48.529 52.5059 48.911 51.9439C50.632 49.5139 53.117 48.2039 55.221 47.0819C56.559 46.3339 57.897 45.7729 58.471 44.8379C59.426 43.5289 59.617 42.9679 59.809 42.2199C59.999 41.0979 60.382 40.1629 64.014 36.9839H64.397V37.3579C60.955 40.3499 60.573 41.2849 60.382 42.2199C60.191 42.7809 60 43.5299 59.044 44.8379C58.279 45.7729 57.132 46.3339 55.603 47.0819C53.5 48.2049 51.206 49.3269 49.485 51.7569C49.103 52.3189 47.955 52.6929 46.617 53.0669C44.897 53.4409 42.794 54.0019 40.882 55.4969C38.397 57.3669 37.441 57.7419 36.294 58.3029C35.147 59.2379 34.382 59.4249 33.044 60.3599Z" fill="black"/>
<path fill-rule="evenodd" clip-rule="evenodd" d="M8.19 33.31V34.807C8.382 34.994 8.956 35.181 8.956 35.555C8.956 35.929 8.573 35.929 8.191 35.929V37.238L10.676 38.734L11.059 37.986L11.632 39.295L15.456 41.539L15.838 40.791L16.22 42.1L20.044 44.344L20.617 43.596L21 44.905L27.882 49.019L72.426 23.586V22.464C72.617 22.277 72.617 22.277 72.617 21.904C72.617 21.716 72.426 21.342 72.426 21.342V19.66L51.97 9.18701L8.19 33.311V33.31Z" fill="#F2E9DF"/>
<path d="M27.882 49.206C27.882 49.206 27.692 49.206 27.882 49.206L20.809 45.092V44.905L20.426 43.97L20.236 44.344C20.236 44.344 20.044 44.531 20.044 44.344L16.221 42.1V41.913L16.029 41.165L15.839 41.539C15.839 41.726 15.647 41.726 15.647 41.539L11.823 39.295V39.108L11.441 38.173L11.25 38.547L11.059 38.734H10.868L8.382 37.238L8.192 37.051V35.555H8.765V35.368C8.765 35.181 8.382 34.994 8.191 34.807L8 34.62V33.124C8 33.124 8 32.937 8.191 32.937L51.971 9H52.161L72.617 19.472L72.808 19.659V21.155C73 21.342 73 21.529 73 21.903C73 22.277 72.808 22.464 72.808 22.464V23.586C72.808 23.586 72.808 23.773 72.618 23.773L27.881 49.206H27.882ZM21 44.718L27.691 48.832L71.853 23.586V22.277C71.853 22.277 72.043 22.09 72.043 21.903C72.043 21.716 72.043 21.529 71.853 21.529C71.661 21.529 71.661 21.529 71.661 21.342V19.846L51.971 9.561L8.381 33.498V34.807C8.573 34.994 9.146 35.181 9.146 35.555C9.146 35.742 8.955 35.929 8.955 35.929C8.764 36.116 8.573 36.116 8.573 36.116V37.238L10.676 38.547L11.058 37.986L11.249 37.799C11.249 37.799 11.44 37.799 11.44 37.986L12.014 39.295L15.646 41.539L16.028 40.978L16.22 40.791C16.22 40.791 16.41 40.791 16.41 40.978L16.793 42.1L20.425 44.157L20.808 43.596L20.998 43.409C20.998 43.409 21.19 43.409 21.19 43.596L21 44.718Z" fill="black"/>
<path d="M27.882 49.206C27.882 49.206 27.692 49.206 27.882 49.206C27.692 49.206 27.692 49.206 27.882 49.206C27.692 49.206 27.692 49.206 27.882 49.206C27.692 49.206 27.692 49.206 27.882 49.206L20.809 45.092V44.905L20.426 43.97L20.236 44.344C20.236 44.344 20.044 44.531 20.044 44.344L16.221 42.1V41.913L16.029 41.165L15.839 41.539C15.839 41.726 15.647 41.726 15.647 41.539L11.823 39.295V39.108L11.441 38.173L11.25 38.547L11.059 38.734H10.868L8.382 37.238L8.192 37.051V35.555H8.765V35.368C8.765 35.181 8.382 34.994 8.191 34.807L8 34.62V32.937L51.78 9H51.97L72.426 19.472L72.617 19.659V21.155C72.808 21.342 72.808 21.529 72.808 21.903C72.808 22.277 72.618 22.464 72.618 22.464V23.586C72.618 23.586 72.618 23.773 72.426 23.773L27.882 49.206ZM21 44.718L27.5 48.645V47.71C27.5 47.523 27.5 47.523 27.691 47.523C27.882 47.523 28.073 47.523 28.265 47.149C28.265 46.962 28.265 46.588 27.691 46.401L27.5 46.214V44.157L8.19 33.685V34.62C8.381 34.807 8.955 34.994 8.955 35.368C8.955 35.555 8.764 35.742 8.764 35.742C8.573 35.929 8.381 35.929 8.381 35.929V37.051L10.484 38.36L10.867 37.799L11.057 37.612C11.057 37.612 11.249 37.612 11.249 37.799L11.822 39.108L15.455 41.352L15.837 40.791L16.028 40.604C16.028 40.604 16.22 40.604 16.22 40.791L16.602 41.913L20.234 43.97L20.617 43.409L20.807 43.222C20.807 43.222 20.999 43.222 20.999 43.409V44.718H21ZM28.073 47.897V48.645L72.043 23.586V22.277C72.043 22.277 72.235 22.09 72.235 21.903C72.235 21.716 72.235 21.529 72.044 21.529C71.853 21.529 71.853 21.529 71.853 21.342V20.033L27.883 44.157V46.027C28.456 46.214 28.456 46.775 28.456 47.149C28.646 47.709 28.265 47.897 28.073 47.897ZM27.883 43.783L71.853 19.846L51.97 9.561L8.574 33.311L27.882 43.783H27.883Z" fill="black"/>
<path d="M72.402 21.179L27.945 46.092L28.135 46.416L72.592 21.503L72.402 21.179ZM28.073 48.084L27.691 47.71L72.235 22.277L72.426 22.651L28.073 48.084Z" fill="black"/>
<path opacity="0.26" d="M30.94 22.6511C30.75 22.4641 30.75 22.4641 30.75 22.2771C31.323 21.7171 31.896 21.3421 32.852 20.9681C33.808 20.5941 35.147 20.0331 36.485 18.7241C38.205 17.2281 40.308 16.6671 42.22 16.2941C43.75 15.9191 45.088 15.5451 45.852 14.7971C48.146 12.7401 49.867 11.9921 51.396 11.4311C52.352 11.0571 53.308 10.6831 53.882 9.93506H54.264V10.3091C53.499 11.0571 52.544 11.4311 51.588 11.8051C50.249 12.3661 48.338 12.9271 46.235 14.9851C45.279 15.9191 43.941 16.1061 42.411 16.4801C40.691 16.8541 38.588 17.4151 36.867 18.9111C35.337 20.2211 34.191 20.7811 33.044 21.1551C32.279 21.9031 31.514 22.0901 30.941 22.6511C31.131 22.6511 31.131 22.6511 30.941 22.6511H30.94ZM10.294 34.6201C10.103 34.6201 10.103 34.6201 10.294 34.6201C10.103 34.6201 10.103 34.4331 10.103 34.2461C13.544 29.1961 15.456 29.1961 17.559 29.3831C18.706 29.3831 19.853 29.5711 21.191 28.8231C22.1524 28.3452 23.1859 28.029 24.25 27.8871C26.735 27.1401 29.794 26.3911 31.897 24.5211C32.279 24.1471 32.662 24.1471 33.044 23.9611C33.618 23.7731 34.382 23.3991 34.382 22.6511C34.382 22.4641 34.573 22.4641 34.573 22.4641C34.765 22.4641 34.765 22.6511 34.765 22.6511C34.573 23.5861 33.809 23.9611 33.044 24.1471C32.662 24.3341 32.279 24.5211 32.088 24.7081C29.985 26.5781 26.926 27.5141 24.25 28.2621C23.103 28.6351 21.956 28.8221 21.382 29.1961C19.852 29.9441 18.706 29.9441 17.559 29.9441C15.456 29.7581 13.544 29.5711 10.294 34.6201ZM15.838 37.6121C15.838 37.6121 15.647 37.6121 15.647 37.4251C15.647 37.2381 15.647 37.2381 15.838 37.2381C16.22 37.0511 16.794 36.4901 17.368 35.7421C18.897 33.8721 21 31.2541 25.97 30.3191C26.162 30.3191 28.265 29.0091 28.456 28.8231C28.456 28.8231 28.646 28.6351 28.646 28.8231C28.646 28.8231 28.838 29.0091 28.646 29.1961C28.456 29.3841 26.162 30.8791 25.97 30.8791C21.191 31.8151 19.088 34.4331 17.559 36.1161C16.985 36.8641 16.412 37.4251 15.839 37.6121H15.838ZM29.603 32.5631C29.412 32.5631 29.22 32.5631 29.22 32.3751C28.838 32.0021 29.794 31.0661 31.706 28.8221C32.662 27.8871 33.809 26.5781 34.765 25.4561C36.676 23.0261 39.735 21.7161 42.029 20.7811C42.985 20.4071 43.941 20.0331 44.323 19.6591H44.706V20.0331C44.132 20.4071 43.367 20.7811 42.22 21.1551C40.118 22.0901 37.059 23.3991 35.147 25.6431C34.191 26.7651 33.044 27.8871 32.088 29.0091C30.941 30.3191 29.603 31.6281 29.603 32.0011C29.603 32.0011 29.794 32.0011 31.323 31.4411C32.471 30.8791 33.044 30.3181 33.809 29.5711C34.765 28.4481 35.721 27.3261 38.779 26.5781C38.97 26.5781 40.117 25.8301 41.456 25.0821C43.75 23.5861 46.809 21.7161 48.338 21.1551C50.058 20.5951 51.206 18.5371 51.397 17.4151C51.397 17.0411 51.397 16.8551 51.206 16.6671C51.014 16.6671 50.823 16.4801 49.867 17.0411H49.677V16.8541C50.441 16.2941 51.014 16.1061 51.397 16.4801C51.588 16.6671 51.779 16.8541 51.779 17.6021C51.588 18.9121 50.249 21.1551 48.529 21.7161C47.191 22.0901 44.132 24.1471 41.839 25.4561C40.118 26.5781 39.353 26.9521 39.162 27.1391C36.294 27.7001 35.338 28.8221 34.382 29.9441C33.809 30.6921 33.044 31.4411 31.706 32.0021C30.368 32.3751 29.986 32.5621 29.603 32.5621V32.5631Z" fill="black"/>
<path opacity="0.26" d="M27.308 35.7421C26.926 35.7421 26.353 35.7421 26.162 35.3681C25.779 35.1811 25.588 34.6201 25.588 34.0581C25.588 32.3761 26.735 31.8151 27.882 31.4411C28.838 30.8801 29.794 30.5061 29.985 29.1971C30.176 28.2621 32.47 26.3921 33.617 25.6431H34V26.0171C32.088 27.5141 30.558 28.8231 30.558 29.3841C30.368 30.8801 29.22 31.4411 28.264 32.0021C27.117 32.5621 26.353 32.9371 26.353 34.2461C26.353 34.8061 26.543 34.9941 26.735 35.1811C27.5 35.7411 29.029 35.1811 30.367 34.8071C31.132 34.6201 31.706 34.4331 32.279 34.4331C33.426 34.2461 34.764 32.9371 36.294 31.6281C38.779 29.1971 42.029 26.3911 46.234 26.0181C46.426 26.0181 46.426 26.0181 46.426 26.2041C46.426 26.3911 46.426 26.3911 46.235 26.3911C42.029 26.5791 38.97 29.5711 36.485 31.8151C34.955 33.3111 33.617 34.6201 32.279 34.8071C31.706 34.8071 31.132 34.9941 30.559 35.1811C29.22 35.3681 28.073 35.7411 27.309 35.7411L27.308 35.7421Z" fill="black"/>
<path opacity="0.26" d="M22.147 40.978C22.147 40.978 21.956 40.978 21.956 40.791C21.956 40.604 21.956 40.604 22.146 40.604C23.676 40.23 24.632 39.669 25.588 38.921C26.735 37.986 28.264 37.051 31.514 36.49C34.956 35.928 37.25 34.245 39.544 31.814C40.882 30.318 42.794 29.757 44.706 29.196C47.191 28.448 49.485 27.7 49.676 24.896C49.676 23.586 53.117 19.286 54.456 18.537H54.646V18.724C53.308 19.472 50.058 23.774 50.058 24.708C49.868 27.888 47.382 28.635 44.897 29.383C43.177 29.944 41.264 30.505 39.927 31.814C37.632 34.245 35.337 35.928 31.706 36.489C28.456 37.051 27.117 37.986 25.97 38.921C24.823 40.043 23.867 40.604 22.147 40.978ZM53.882 15.171C53.499 15.171 53.308 15.171 53.117 14.984C52.926 14.797 52.735 14.61 52.735 14.424C52.735 14.049 53.117 13.675 53.882 13.301C54.072 13.301 54.455 13.114 54.646 12.927C55.029 12.74 55.22 12.553 55.602 12.366C55.794 12.366 55.794 12.366 55.794 12.553C55.794 12.74 55.794 12.74 55.602 12.74C55.412 12.74 55.029 12.927 54.838 13.114C54.455 13.301 54.073 13.488 53.882 13.675C53.308 13.862 52.926 14.236 52.926 14.423C52.926 14.61 53.117 14.61 53.117 14.61C53.691 14.984 55.794 14.61 58.279 12.553H58.661V12.927C56.749 14.423 55.029 15.171 53.881 15.171H53.882Z" fill="black"/>
<path opacity="0.26" d="M33.044 38.3599C32.853 38.3599 32.853 38.3599 33.044 38.3599C32.853 38.1729 32.853 37.9859 32.853 37.9859C34.191 37.2379 34.956 36.8639 35.72 36.4899C36.867 35.9289 38.014 35.5549 40.309 33.6849C42.22 32.1889 44.514 31.6279 46.235 31.0669C47.573 30.6929 48.529 30.5059 48.911 29.9449C50.632 27.5139 53.117 26.2049 55.221 25.0819C56.559 24.3339 57.897 23.7729 58.471 22.8379C59.426 21.5289 59.617 20.9679 59.809 20.2199C59.999 19.0979 60.382 18.1629 64.014 14.9839H64.397V15.3579C60.955 18.3499 60.573 19.2849 60.382 20.2199C60.191 20.7809 60 21.5299 59.044 22.8379C58.279 23.7729 57.132 24.3339 55.603 25.0819C53.5 26.2039 51.206 27.3259 49.485 29.7569C49.103 30.3189 47.955 30.6929 46.617 31.0669C44.897 31.4409 42.794 32.0019 40.882 33.4969C38.397 35.3669 37.441 35.7419 36.294 36.3029C35.147 37.2379 34.382 37.4249 33.044 38.3599Z" fill="black"/>
</svg>
