<svg width="30" height="30" viewBox="0 0 30 30" fill="none" xmlns="http://www.w3.org/2000/svg">
<path d="M25.5 4.92484H4.5V25.875H25.5V4.92484Z" fill="#F2E9DF"/>
<path fill-rule="evenodd" clip-rule="evenodd" d="M4.5 21.645V20.7495L4.59975 21.1972V21.2471L4.5 21.645ZM4.5 12.6877V11.7918L4.59975 12.24V12.2898L4.5 12.6877Z" fill="black"/>
<path fill-rule="evenodd" clip-rule="evenodd" d="M7.94168 24.432L8.34068 25.875H8.04143L7.69268 24.5314L4.59968 21.4463L4.5498 21.6949V21.048H4.59968C4.59968 21.048 4.64955 21.048 4.64955 21.0979L7.94206 24.3822C7.89181 24.3822 7.94206 24.432 7.94206 24.432H7.94168Z" fill="black"/>
<path fill-rule="evenodd" clip-rule="evenodd" d="M9.13898 20.0528L7.94198 24.4816L8.29148 25.8751H8.04211L7.69336 24.5314V24.4816L8.89036 20.0029C8.89036 20.0029 8.89036 19.9531 8.94023 19.9531L12.2324 16.6688L12.2822 16.6189C12.3321 16.6189 12.4319 16.6189 12.4319 16.7187L13.6289 21.1973V21.2472L12.4315 25.7258C12.4315 25.7258 12.4315 25.7757 12.3816 25.7757L12.2815 25.8751H11.9324L12.1817 25.6264L13.3787 21.1973L12.2312 16.9673L9.13898 20.0528Z" fill="black"/>
<path opacity="0.26" fill-rule="evenodd" clip-rule="evenodd" d="M7.94168 15.4248L9.13868 19.9035V19.9533L7.94168 24.432C7.94168 24.4815 7.84193 24.5313 7.79205 24.5313C7.79205 24.5313 7.74218 24.5313 7.74218 24.4815L4.5498 21.2966V20.6002L4.64955 21.0479L7.74218 24.1335L8.88968 19.9035L7.69231 15.4747L4.59968 12.3892L4.5498 12.6378V11.991H4.59968C4.64955 11.991 4.64955 11.991 4.64955 12.0408L7.94206 15.3251C7.89181 15.4248 7.94206 15.4248 7.94206 15.4248H7.94168Z" fill="black"/>
<path opacity="0.26" fill-rule="evenodd" clip-rule="evenodd" d="M7.94175 6.4672L9.13875 10.9462V10.9957L7.94175 15.4743C7.94175 15.5242 7.842 15.5741 7.79212 15.5741C7.79212 15.5741 7.74225 15.5741 7.74225 15.5242L4.5 12.3393V11.6426L4.59975 12.0907L7.69237 15.1758L8.83987 10.9458L7.69237 6.56695L6.096 4.92445H6.4455L7.89187 6.36783C7.89187 6.4177 7.94175 6.4177 7.94175 6.4672Z" fill="black"/>
<path opacity="0.26" d="M9.03924 20.0528C9.03924 20.0528 8.98937 20.0528 9.03924 20.0528C8.98937 20.0528 8.98937 20.0528 8.98937 20.0029L7.79199 15.5243V15.4744L8.98937 10.9958L12.2815 7.71152H12.3314C12.3314 7.71152 12.3812 7.71152 12.3812 7.7614L13.5782 12.24V12.2899L12.3812 16.7685L9.03924 20.0528ZM7.89174 15.5243L9.08912 19.9035L12.3314 16.6688L13.5284 12.1901L12.3314 7.8109L9.08912 11.0456L7.89174 15.5243Z" fill="black"/>
<path opacity="0.26" fill-rule="evenodd" clip-rule="evenodd" d="M8.34087 4.92484L7.94187 6.46721L9.08937 10.6972L12.182 7.61209L12.9301 4.92484H13.1795L12.4314 7.71146C12.4314 7.71146 12.4314 7.76134 12.3815 7.76134L9.089 11.0456L9.0395 11.0955C8.98962 11.0955 8.8895 11.0955 8.8895 10.9957L7.69287 6.51746V6.46759L8.09187 4.92521H8.34125L8.34087 4.92484Z" fill="black"/>
<path d="M16.8207 24.5313L13.4787 21.2471L12.2817 16.7685V16.7186L13.4787 12.24C13.4787 12.24 13.4787 12.1901 13.5286 12.1901H13.5785L16.871 15.4743L18.0676 19.9537V20.0032L16.8702 24.4818C16.8702 24.4818 16.8702 24.5317 16.8204 24.5317C16.8702 24.5317 16.8702 24.5317 16.8204 24.5317L16.8207 24.5313ZM13.5785 21.1473L16.8207 24.3821L18.0181 20.0028L16.8207 15.5242L13.5785 12.2895L12.3815 16.6687L13.5785 21.1473Z" fill="#F2E9DF"/>
<path d="M18.0677 20.0528C18.0182 20.0528 18.0182 20.0528 18.0182 20.0029L16.8208 15.5243V15.4744L18.0182 10.9958L21.3103 7.71152H21.3602C21.3602 7.71152 21.41 7.71152 21.41 7.7614L22.607 12.24V12.2899L21.41 16.7685L18.0681 20.0528H18.0677ZM16.9206 15.4744L18.1179 19.8536L21.3602 16.6193L22.5572 12.1403L21.3602 7.7614L18.1179 10.9958L16.9206 15.4744Z" fill="black"/>
<path fill-rule="evenodd" clip-rule="evenodd" d="M16.9704 6.46725L18.1678 10.9463V10.9958L16.9704 15.4744C16.9704 15.5243 16.8707 15.5741 16.8208 15.5741C16.7709 15.5741 16.7709 15.5741 16.7709 15.5243L13.4788 12.24L13.4289 12.1901L12.2319 7.7115V7.66163L12.9302 4.92488H13.1796L12.4314 7.66125L13.6284 12.09L16.7211 15.1755L17.8686 10.9455L16.6712 6.51675L15.0249 4.875H15.3744L16.9206 6.36788C16.9704 6.41775 16.9704 6.41775 16.9704 6.46725Z" fill="black"/>
<path fill-rule="evenodd" clip-rule="evenodd" d="M17.3693 4.92483L16.9703 6.51707C16.9703 6.56695 16.8705 6.61645 16.8206 6.61645C16.8206 6.61645 16.7708 6.61645 16.7708 6.56695L15.1245 4.92445H15.474L16.7708 6.2182L17.1199 4.92445H17.3693V4.92483Z" fill="black"/>
<path opacity="0.26" fill-rule="evenodd" clip-rule="evenodd" d="M17.4192 4.92484L16.9704 6.51709L18.1179 10.7471L21.2105 7.66159L21.9586 4.92484H22.208L21.4599 7.76134C21.4599 7.76134 21.4599 7.81084 21.41 7.81084L18.1175 11.0955L18.068 11.145C18.0181 11.145 17.918 11.145 17.918 11.0456L16.7214 6.56696V6.51709L17.1204 4.97434H17.4196V4.92484H17.4192ZM25.5001 6.26846L24.1535 4.92484H24.5022L25.5001 5.92009V6.26846ZM16.9704 24.4815L17.3694 25.875H17.12L16.7712 24.5812L13.6782 21.4957L12.5307 25.7257L12.581 25.875H12.3316L12.2817 25.7257V25.6758L13.4787 21.1972C13.4787 21.1473 13.5785 21.0978 13.6287 21.0978C13.6287 21.0978 13.6782 21.0978 13.6782 21.1473L16.9707 24.432V24.4815H16.9704ZM25.5001 24.2827L22.5072 21.2966L22.4574 21.2471L21.26 16.7685V16.7186L22.4574 12.24C22.4574 12.1901 22.5571 12.1402 22.607 12.1402C22.607 12.1402 22.6569 12.1402 22.6569 12.1901L25.5001 15.0266V15.3251L22.6569 12.4886L21.5094 16.7186L22.7067 21.1473L25.5001 23.9343V24.2823V24.2827Z" fill="black"/>
<path opacity="0.26" fill-rule="evenodd" clip-rule="evenodd" d="M25.4999 15.2756L22.507 12.2898L22.4571 12.24L21.2598 7.76134V7.71146L22.0083 4.97434H22.2576L21.5095 7.76134L22.7065 12.1901L25.4999 14.9767V15.2756ZM24.4525 4.92484H24.103L25.4999 6.31796V5.92009L24.4525 4.92484ZM21.31 25.875L21.2601 25.7257V25.6758L22.4571 21.1972C22.4571 21.1473 22.5569 21.0978 22.6068 21.0978C22.6068 21.0978 22.6566 21.0978 22.6566 21.1473L25.4999 23.9838V24.2827L22.6566 21.4462L21.5091 25.6762L21.5594 25.875H21.31Z" fill="black"/>
<path opacity="0.26" fill-rule="evenodd" clip-rule="evenodd" d="M18.1676 20.1027L16.9702 24.5314L17.3193 25.875H17.0699L16.7212 24.5813V24.5314L17.9182 20.0528C17.9182 20.0528 17.9182 20.0029 17.9681 20.0029L21.2602 16.7187L21.3101 16.6688C21.3599 16.6688 21.4597 16.6688 21.4597 16.7685L22.6567 21.2472V21.297L21.4597 25.7757C21.4597 25.7757 21.4597 25.8252 21.4098 25.8252V25.875H21.0607L21.2602 25.6763L22.4572 21.2472L21.3097 17.0172L18.1672 20.1027H18.1676Z" fill="black"/>
<path opacity="0.26" d="M4.6875 5.0625H25.3125V25.6875H4.6875V5.0625Z" fill="black"/>
</svg>
