<svg width="80" height="80" viewBox="0 0 80 80" fill="none" xmlns="http://www.w3.org/2000/svg">
<path d="M67.9 12.1001H12.1V68.0001H67.8V12.1001H67.9Z" fill="#ECECEC"/>
<path d="M12.3 67.9C12.1 67.9 12.1 67.9 12.3 67.9C12.2 67.8 12.2 67.8 12.2 67.6L67.7 12H68V12.3L12.3 67.9Z" fill="#40332B"/>
<path d="M67.5 67.9C67.5 67.9 67.3 67.9 67.5 67.9L12.1 12.5V12.2H12.4L67.6 67.6999C67.6 67.6999 67.6 67.9 67.5 67.9Z" fill="#40332B"/>
<path d="M58.5 21.3999H21.5V58.3999H58.4V21.3999H58.5Z" fill="white"/>
<path d="M58.6 58.7001H21.3V21.3H58.6V58.7001ZM21.7 58.4001H58.4V21.6H21.7V58.4001Z" fill="#40332B"/>
<path fill-rule="evenodd" clip-rule="evenodd" d="M12.1 40.2999L39.6 12.2L67.8 39.7L40.2 67.9L12.1 40.2999Z" fill="#DCDCDC"/>
<path d="M40.2 68L12 40.4V40.2L39.5 12H39.8L68 39.6V39.8L40.2 68C40.3 68 40.3 68 40.2 68ZM12.3 40.3L40.2 67.6L67.6 39.6L39.7 12.3L12.3 40.3Z" fill="#40332B"/>
<path d="M67.3 39.9H12.1C12 39.9 12 39.8999 12 39.7999C12 39.6999 12 39.7 12.1 39.7H67.3C67.4 39.7 67.4 39.6999 67.4 39.7999C67.5 39.8999 67.5 39.9 67.3 39.9Z" fill="#40332B"/>
<path d="M39.8 67.5C39.7 67.5 39.7 67.5 39.7 67.4V12.3C39.7 12.2 39.7 12.2 39.8 12.2C39.9 12.2 39.9 12.2 39.9 12.3V67.4C39.9 67.5 39.9 67.5 39.8 67.5Z" fill="#40332B"/>
<path d="M39.7 25.3999L25.5 39.8999L40 54.0999L54.2 39.5999L39.7 25.3999Z" fill="white"/>
<path fill-rule="evenodd" clip-rule="evenodd" d="M39.7 26.0999L26.2 39.8999L40 53.3999L53.5 39.5999L39.7 26.0999ZM39.7 25.3999L54.2 39.5999L40 54.0999L25.5 39.8999L39.7 25.3999Z" fill="#40332B"/>
<path d="M12.5 12.5H67.5V67.5H12.5V12.5Z" stroke="#947D6F"/>
</svg>
