<svg width="80" height="80" viewBox="0 0 80 80" fill="none" xmlns="http://www.w3.org/2000/svg">
<path fill-rule="evenodd" clip-rule="evenodd" d="M12 14.6999V15.9999L30.2 34.1999L23.7 40.6999L12 28.9999V30.1999L13.2 31.3999L30.1 48.3999L23.6 54.8999L12 43.2999V44.7999L30 62.6999L24.5 67.9999H25.9L47.5 46.5999L54 52.9999L47.6 59.4999L47.5 59.3999L39 67.9999H40.4C42.8 65.5999 45.2 63.2999 47.5 60.8999L53.9 67.2999L53.2 67.9999H56L48.1 60.1999L54.6 53.6999L68 66.8999V65.5999L48.1 45.8999L54.6 39.3999L68 52.5999V51.2999L48.4 31.4999L54.9 25.0999L68 38.1999V36.8999L55.1 24.0999L55 23.8999L54.9 23.9999L48.3 17.4999L52.2 13.5999L53.7 12.0999H52.4L47.2 17.4999L47.3 17.5999L30.9 33.5999L24.3 26.9999L31.4 19.7999C32.2 18.9999 33 18.0999 33.8 17.2999L39.2 11.8999H37.9L30.7 18.9999L24.3 12.5999L25 11.9999H22.3L30.2 19.7999L23.7 26.1999L12 14.6999ZM47.8 32.0999L54.2 38.4999L47.4 45.3999L30.6 61.9999L24.1 55.4999L31.4 48.3999L47.8 32.0999ZM43.3 22.2999C44.8 20.7999 46.3 19.3999 47.7 17.8999C49.9 20.0999 52.1 22.2999 54.3 24.3999L47.2 31.3999L47.3 31.4999L30.8 47.7999L24.3 41.2999L31 34.4999C35.1 30.3999 39.2 26.3999 43.3 22.2999Z" fill="#40332B"/>
<path d="M57.1 12H55.9L68 24V22.8L57.1 12ZM21.2 68H22.5L12 57.6V58.9L21.2 68Z" fill="#40332B"/>
<path opacity="0.43" d="M68 12H12V68H68V12Z" fill="#E5DBCF"/>
<path d="M12.5 12.5H67.5V67.5H12.5V12.5Z" stroke="#947D6F"/>
</svg>
