<svg width="25" height="25" viewBox="0 0 25 25" fill="none" xmlns="http://www.w3.org/2000/svg">
<path d="M12.5 0C5.59652 0 0 5.59652 0 12.5C0 19.4035 5.59652 25 12.5 25C19.4035 25 25 19.4035 25 12.5C24.9923 5.59977 19.4002 0.00773115 12.5 0ZM12.5 24.1667C6.05672 24.1667 0.833333 18.9433 0.833333 12.5C0.833333 6.05672 6.05672 0.833333 12.5 0.833333C18.9433 0.833333 24.1667 6.05672 24.1667 12.5C24.1593 18.9402 18.9402 24.1593 12.5 24.1667Z" fill="#DF2614"/>
<path d="M17.9779 14.0243L14.4413 13.3993C14.2623 13.3678 14.0837 13.4557 13.9996 13.6168L13.1421 15.2601C11.6248 14.5881 10.4122 13.3749 9.7408 11.8571L11.3824 10.9996C11.5436 10.9156 11.6315 10.7369 11.5999 10.5579L10.9749 7.02174C10.9554 6.91045 10.8915 6.81198 10.7979 6.74871C9.90377 6.14568 8.7498 6.08505 7.79745 6.59124C6.84509 7.09763 6.25 8.08823 6.25 9.16672C6.2559 14.457 10.543 18.7442 15.8333 18.7501C16.912 18.7499 17.9026 18.1544 18.4088 17.2018C18.9148 16.249 18.8538 15.0949 18.2499 14.2009C18.1869 14.1077 18.0888 14.0438 17.9779 14.0243ZM15.8333 17.9167C11.0032 17.9112 7.08883 13.9968 7.08333 9.16672C7.08313 8.42656 7.47579 7.74195 8.11462 7.36801C8.75346 6.99427 9.54285 6.98756 10.188 7.35051L10.7267 10.4029L9.01835 11.2946C8.83118 11.3923 8.74654 11.6142 8.82121 11.8118C9.58293 13.8268 11.1731 15.4179 13.1879 16.1805C13.3854 16.2551 13.6074 16.1705 13.705 15.9833L14.5972 14.275L17.6495 14.8139C18.0117 15.4588 18.0044 16.2474 17.6308 16.8858C17.2571 17.5241 16.5731 17.9165 15.8333 17.9167Z" fill="#DF2614"/>
</svg>
