<svg width="45" height="32" viewBox="0 0 45 32" fill="none" xmlns="http://www.w3.org/2000/svg">
<path d="M39.7758 16.1756C39.9395 17.5733 39.7906 18.9954 39.324 20.447L39.3211 20.456L39.3185 20.4652C38.8771 22.0415 37.9901 23.573 36.6345 25.0588C35.2762 26.4809 33.7617 27.5747 32.0905 28.346L31.6221 28.5622L31.8528 29.0236L32.7528 30.8236L32.9698 31.2576L33.4101 31.0537C37.0865 29.3517 39.8375 26.9886 41.6305 23.9544L41.6329 23.9501C43.4084 20.8772 44.3 17.6247 44.3 14.2C44.3 12.0963 44.0625 10.1833 43.5815 8.46519C43.107 6.77048 42.4876 5.40804 41.7052 4.40648C40.8518 3.13314 39.6818 2.17954 38.2104 1.54622C36.8004 0.844026 35.1928 0.5 33.4 0.5C30.5013 0.5 28.1068 1.33064 26.2648 3.029C24.4129 4.6692 23.5 6.87841 23.5 9.6C23.5 12.4357 24.3335 14.7122 26.054 16.361L26.054 16.3611L26.0621 16.3686C27.7743 17.9381 30.0382 18.7 32.8 18.7C35.6578 18.7 37.9989 17.8674 39.7758 16.1756ZM16.7758 16.1756C16.9395 17.5733 16.7906 18.9954 16.324 20.447L16.3211 20.456L16.3185 20.4652C15.8771 22.0415 14.9901 23.573 13.6345 25.0588C12.2762 26.4809 10.7616 27.5747 9.09047 28.346L8.62208 28.5622L8.85279 29.0236L9.75279 30.8236L9.96977 31.2576L10.4101 31.0537C14.0865 29.3517 16.8375 26.9886 18.6305 23.9544L18.6305 23.9544L18.6329 23.9501C20.4084 20.8772 21.3 17.6247 21.3 14.2C21.3 12.0963 21.0625 10.1833 20.5815 8.46519C20.107 6.77048 19.4876 5.40804 18.7052 4.40648C17.8518 3.13315 16.6818 2.17954 15.2105 1.54623C13.8004 0.844028 12.1928 0.5 10.4 0.5C7.50128 0.5 5.10675 1.33065 3.26475 3.02902C1.41287 4.66922 0.5 6.87842 0.5 9.6C0.5 12.4357 1.33355 14.7122 3.05405 16.361L3.05396 16.3611L3.06214 16.3686C4.7743 17.9381 7.03822 18.7 9.8 18.7C12.6578 18.7 14.9989 17.8674 16.7758 16.1756Z" stroke="#DF2614"/>
</svg>
