<svg width="25" height="25" viewBox="0 0 25 25" fill="none" xmlns="http://www.w3.org/2000/svg">
<path d="M12.5 0C5.59652 0 0 5.59652 0 12.5C0 19.4035 5.59652 25 12.5 25C19.4035 25 25 19.4035 25 12.5C24.9923 5.59977 19.4002 0.00773115 12.5 0ZM12.5 24.1667C6.05672 24.1667 0.833333 18.9433 0.833333 12.5C0.833333 6.05672 6.05672 0.833333 12.5 0.833333C18.9433 0.833333 24.1667 6.05672 24.1667 12.5C24.1593 18.9402 18.9402 24.1593 12.5 24.1667Z" fill="#DF2614"/>
<path d="M17.5 9.16675H8.68634L8.32745 7.01506C8.29409 6.81425 8.12034 6.66675 7.91669 6.66675H5.83335C5.60325 6.66675 5.41669 6.85331 5.41669 7.08341C5.41669 7.31352 5.60325 7.50008 5.83335 7.50008H7.5637L7.92259 9.65177L8.75592 14.6518C8.78928 14.8526 8.96303 15.0001 9.16669 15.0001H16.6667C16.8703 15.0001 17.0441 14.8526 17.0774 14.6518L17.9108 9.65177C17.9309 9.53092 17.8969 9.40743 17.8178 9.31405C17.7387 9.22066 17.6225 9.16675 17.5 9.16675ZM16.3137 14.1667H9.51967L8.8255 10.0001H17.0079L16.3137 14.1667Z" fill="#DF2614"/>
<path d="M9.99997 15.8333C9.30966 15.8333 8.74997 16.3929 8.74997 17.0833C8.74997 17.7736 9.30966 18.3333 9.99997 18.3333C10.6903 18.3333 11.25 17.7736 11.25 17.0833C11.25 16.3929 10.6903 15.8333 9.99997 15.8333ZM9.99997 17.4999C9.76987 17.4999 9.5833 17.3134 9.5833 17.0833C9.5833 16.8532 9.76987 16.6666 9.99997 16.6666C10.2301 16.6666 10.4166 16.8532 10.4166 17.0833C10.4166 17.3134 10.2301 17.4999 9.99997 17.4999Z" fill="#DF2614"/>
<path d="M15.8333 15.8333C15.143 15.8333 14.5833 16.3929 14.5833 17.0833C14.5833 17.7736 15.143 18.3333 15.8333 18.3333C16.5236 18.3333 17.0833 17.7736 17.0833 17.0833C17.0833 16.3929 16.5236 15.8333 15.8333 15.8333ZM15.8333 17.4999C15.6032 17.4999 15.4166 17.3134 15.4166 17.0833C15.4166 16.8532 15.6032 16.6666 15.8333 16.6666C16.0634 16.6666 16.25 16.8532 16.25 17.0833C16.25 17.3134 16.0634 17.4999 15.8333 17.4999Z" fill="#DF2614"/>
</svg>
