<svg width="50" height="50" viewBox="0 0 50 50" fill="none" xmlns="http://www.w3.org/2000/svg">
<path d="M25.0068 48.6486C24.8182 48.6486 24.6304 48.6445 24.4419 48.6357C21.502 48.4822 18.7243 47.2403 16.6496 45.1517C14.5749 43.0631 13.3515 40.2773 13.2176 37.3364C13.1215 35.1797 13.6234 33.0384 14.668 31.1491C15.7125 29.2597 17.2589 27.6959 19.1365 26.6303V7.2141C19.1365 5.659 19.7543 4.16759 20.8539 3.06797C21.9535 1.96835 23.4449 1.35059 25 1.35059C26.5551 1.35059 28.0465 1.96835 29.1461 3.06797C30.2458 4.16759 30.8635 5.659 30.8635 7.2141V26.6303C33.1173 27.9223 34.8813 29.9226 35.8813 32.3203C36.8813 34.7179 37.0615 37.3788 36.3937 39.8894C35.7258 42.3999 34.2475 44.6197 32.1884 46.2036C30.1293 47.7876 27.6046 48.6471 25.0068 48.6486ZM25 2.70261C23.8039 2.70404 22.6571 3.1798 21.8112 4.02554C20.9654 4.87127 20.4894 6.01796 20.4878 7.2141V27.0269C20.4879 27.1498 20.4544 27.2703 20.3911 27.3755C20.3278 27.4808 20.2369 27.5668 20.1284 27.6242C18.3789 28.5381 16.9265 29.9322 15.9416 31.6427C14.9568 33.3532 14.4803 35.3092 14.5682 37.281C14.6871 39.8834 15.7698 42.3485 17.6056 44.1968C19.4414 46.0451 21.8992 47.1445 24.5007 47.281C26.8736 47.3955 29.2147 46.6971 31.1371 45.3012C33.0594 43.9054 34.4482 41.8955 35.0738 39.6036C35.6995 37.3118 35.5246 34.8751 34.5782 32.696C33.6317 30.517 31.9702 28.7259 29.8682 27.6188C29.7611 27.5613 29.6715 27.476 29.6089 27.3718C29.5462 27.2677 29.5128 27.1485 29.5122 27.0269V7.2141C29.5106 6.01796 29.0346 4.87127 28.1888 4.02554C27.3429 3.1798 26.1961 2.70404 25 2.70261Z" fill="#DF2614"/>
<path d="M25 44.2567C23.53 44.2567 22.093 43.8208 20.8708 43.0041C19.6485 42.1874 18.6959 41.0267 18.1333 39.6686C17.5708 38.3105 17.4236 36.816 17.7104 35.3743C17.9972 33.9325 18.705 32.6082 19.7445 31.5688C20.7839 30.5293 22.1083 29.8214 23.55 29.5347C24.9918 29.2479 26.4862 29.3951 27.8443 29.9576C29.2024 30.5202 30.3632 31.4728 31.1798 32.695C31.9965 33.9173 32.4324 35.3543 32.4324 36.8243C32.4301 38.7948 31.6463 40.6839 30.253 42.0772C28.8596 43.4706 26.9705 44.2544 25 44.2567ZM25 30.7432C23.7973 30.7432 22.6216 31.0999 21.6215 31.768C20.6215 32.4362 19.8421 33.386 19.3818 34.4972C18.9216 35.6083 18.8011 36.831 19.0358 38.0106C19.2704 39.1903 19.8496 40.2738 20.7 41.1243C21.5505 41.9747 22.634 42.5539 23.8136 42.7885C24.9933 43.0232 26.216 42.9027 27.3271 42.4425C28.4383 41.9822 29.388 41.2028 30.0562 40.2028C30.7244 39.2027 31.0811 38.027 31.0811 36.8243C31.0793 35.212 30.438 33.6663 29.298 32.5263C28.158 31.3862 26.6123 30.745 25 30.7432Z" fill="#DF2614"/>
<path d="M25 30.7433C24.8208 30.7433 24.6489 30.6722 24.5222 30.5454C24.3955 30.4187 24.3243 30.2469 24.3243 30.0677V8.85146C24.3243 8.67226 24.3955 8.5004 24.5222 8.37368C24.6489 8.24697 24.8208 8.17578 25 8.17578C25.1792 8.17578 25.351 8.24697 25.4778 8.37368C25.6045 8.5004 25.6757 8.67226 25.6757 8.85146V30.0677C25.6757 30.2469 25.6045 30.4187 25.4778 30.5454C25.351 30.6722 25.1792 30.7433 25 30.7433Z" fill="#DF2614"/>
<path d="M35.1352 9.45951H33.2561C33.0769 9.45951 32.905 9.38832 32.7783 9.2616C32.6516 9.13489 32.5804 8.96303 32.5804 8.78383C32.5804 8.60463 32.6516 8.43277 32.7783 8.30606C32.905 8.17934 33.0769 8.10815 33.2561 8.10815H35.1352C35.3144 8.10815 35.4862 8.17934 35.6129 8.30606C35.7397 8.43277 35.8108 8.60463 35.8108 8.78383C35.8108 8.96303 35.7397 9.13489 35.6129 9.2616C35.4862 9.38832 35.3144 9.45951 35.1352 9.45951Z" fill="#DF2614"/>
<path d="M36.4865 14.4141H33.2561C33.0769 14.4141 32.905 14.3429 32.7783 14.2162C32.6516 14.0895 32.5804 13.9176 32.5804 13.7384C32.5804 13.5592 32.6516 13.3874 32.7783 13.2606C32.905 13.1339 33.0769 13.0627 33.2561 13.0627H36.4865C36.6657 13.0627 36.8376 13.1339 36.9643 13.2606C37.091 13.3874 37.1622 13.5592 37.1622 13.7384C37.1622 13.9176 37.091 14.0895 36.9643 14.2162C36.8376 14.3429 36.6657 14.4141 36.4865 14.4141Z" fill="#DF2614"/>
<path d="M35.1352 19.3697H33.2561C33.0769 19.3697 32.905 19.2985 32.7783 19.1718C32.6516 19.045 32.5804 18.8732 32.5804 18.694C32.5804 18.5148 32.6516 18.3429 32.7783 18.2162C32.905 18.0895 33.0769 18.0183 33.2561 18.0183H35.1352C35.3144 18.0183 35.4862 18.0895 35.6129 18.2162C35.7397 18.3429 35.8108 18.5148 35.8108 18.694C35.8108 18.8732 35.7397 19.045 35.6129 19.1718C35.4862 19.2985 35.3144 19.3697 35.1352 19.3697Z" fill="#DF2614"/>
<path d="M36.4865 24.3242H33.2561C33.0769 24.3242 32.905 24.2531 32.7783 24.1263C32.6516 23.9996 32.5804 23.8278 32.5804 23.6486C32.5804 23.4694 32.6516 23.2975 32.7783 23.1708C32.905 23.0441 33.0769 22.9729 33.2561 22.9729H36.4865C36.6657 22.9729 36.8376 23.0441 36.9643 23.1708C37.091 23.2975 37.1622 23.4694 37.1622 23.6486C37.1622 23.8278 37.091 23.9996 36.9643 24.1263C36.8376 24.2531 36.6657 24.3242 36.4865 24.3242Z" fill="#DF2614"/>
</svg>
