<svg width="50" height="50" viewBox="0 0 50 50" fill="none" xmlns="http://www.w3.org/2000/svg">
<path d="M25 48.6486C24.9166 48.6493 24.8339 48.6333 24.7568 48.6013L1.7838 39.8175C1.65777 39.7677 1.54963 39.6812 1.47343 39.5691C1.39722 39.4571 1.35648 39.3247 1.35648 39.1892C1.35648 39.0536 1.39722 38.9213 1.47343 38.8092C1.54963 38.6971 1.65777 38.6106 1.7838 38.5608L24.7568 29.777C24.9133 29.7166 25.0867 29.7166 25.2433 29.777L48.2162 38.5608C48.3423 38.6106 48.4504 38.6971 48.5266 38.8092C48.6028 38.9213 48.6436 39.0536 48.6436 39.1892C48.6436 39.3247 48.6028 39.4571 48.5266 39.5691C48.4504 39.6812 48.3423 39.7677 48.2162 39.8175L25.2433 48.6013C25.1662 48.6333 25.0835 48.6493 25 48.6486ZM3.91894 39.1892L25 47.25L46.0811 39.1892L25 31.1283L3.91894 39.1892Z" fill="#DF2614"/>
<path d="M47.3987 39.5472L25 3.31075L2.60139 39.5472L1.45274 38.831L24.4257 1.66886C24.4863 1.57109 24.5709 1.4904 24.6714 1.43444C24.7719 1.37849 24.885 1.34912 25 1.34912C25.1151 1.34912 25.2282 1.37849 25.3287 1.43444C25.4292 1.4904 25.5138 1.57109 25.5744 1.66886L48.5473 38.831L47.3987 39.5472Z" fill="#DF2614"/>
<path d="M24.3243 2.0271H25.6757V30.4055H24.3243V2.0271Z" fill="#DF2614"/>
</svg>
