<svg width="101" height="43" viewBox="0 0 101 43" fill="none" xmlns="http://www.w3.org/2000/svg">
<path fill-rule="evenodd" clip-rule="evenodd" d="M40.9289 17.8048C42.7644 17.3354 45.2756 16.1403 45.2756 13.2376C45.2756 11.8147 44.6069 10.4773 43.5328 9.75165C42.4939 9.06855 41.1424 8.72723 38.7661 8.72723H30.5062V9.60934C32.9678 9.76584 33.1101 9.95803 33.1101 12.5687V24.7058C33.1101 27.2813 32.9038 27.4877 30.2361 27.6725V28.5334H37.4072C39.89 28.5334 42.0174 28.1847 43.6111 27.3454C45.4253 26.3422 46.5492 24.7486 46.5492 22.6997C46.5492 19.6547 44.1088 18.3244 40.9289 17.9046V17.8048ZM36.0128 17.4778V11.5658C36.0128 10.6267 36.091 10.2709 36.3615 10.0858C36.639 9.87245 37.3431 9.70883 38.0974 9.70883C40.9289 9.70883 42.1597 11.4376 42.1597 13.6359C42.1597 16.1616 40.7438 17.4778 37.3647 17.4778H36.0128ZM36.0128 18.545H37.3006C41.0712 18.545 43.1913 19.9393 43.1913 23.0126C43.1913 26.1716 40.993 27.4236 38.5597 27.4662C36.6104 27.4877 36.0128 26.9043 36.0128 24.6275V18.545ZM58.2254 17.8048C60.0608 17.3354 62.572 16.1403 62.572 13.2376C62.572 11.8147 61.9033 10.4773 60.8293 9.75165C59.7904 9.06855 58.4388 8.72723 56.0625 8.72723H47.8027V9.60934C50.2643 9.76584 50.4066 9.95803 50.4066 12.5687V24.7058C50.4066 27.2813 50.2002 27.4877 47.5325 27.6725V28.5334H54.7036C57.1865 28.5334 59.3139 28.1847 60.9075 27.3454C62.7217 26.3422 63.8456 24.7486 63.8456 22.6997C63.8456 19.6547 61.4053 18.3244 58.2254 17.9046V17.8048ZM53.3093 17.4778V11.5658C53.3093 10.6267 53.3875 10.2709 53.6579 10.0858C53.9354 9.87245 54.6396 9.70883 55.3939 9.70883C58.2254 9.70883 59.4562 11.4376 59.4562 13.6359C59.4562 16.1616 58.0403 17.4778 54.6611 17.4778H53.3093ZM53.3093 18.545H54.597C58.3677 18.545 60.4877 19.9393 60.4877 23.0126C60.4877 26.1716 58.2894 27.4236 55.8562 27.4662C53.9068 27.4877 53.3093 26.9043 53.3093 24.6275V18.545ZM84.3719 28.5263V27.6442C82.3516 27.4378 81.9105 27.1033 80.9144 24.4212C78.8514 19.0855 76.8521 13.6572 74.8531 8.25754L73.7717 8.52795L67.2336 24.4212C66.1165 27.1249 65.6825 27.3309 63.6693 27.6442V28.5263H70.5275V27.6442C68.1727 27.395 67.9236 27.0393 68.5925 25.1896C68.9837 23.9801 69.4035 22.7992 69.9228 21.4048H76.6174C77.279 23.1479 77.8411 24.6703 78.2822 25.8725C78.6946 27.1033 78.4245 27.3737 76.4893 27.6442V28.5263H84.3719ZM76.1551 20.0388H70.4421C71.3813 17.5843 72.3629 14.9736 73.359 12.4479H73.423L76.1551 20.0388ZM100.516 13.5222C100.374 11.6865 100.203 9.34604 100.203 7.95874H99.5341C99.0573 8.54214 98.7656 8.72723 97.9121 8.72723H85.2911C84.3662 8.72723 83.975 8.72724 83.5127 7.95874H82.844C82.7799 9.63064 82.6376 11.644 82.4882 13.6217H83.4274C83.8256 12.1846 84.0961 11.2954 84.4943 10.769C84.9141 10.1286 85.5616 9.83694 88.2791 9.83694H90.0933V24.6845C90.0933 27.1249 89.8232 27.4591 86.963 27.6442V28.5263H96.1833V27.6442C93.2236 27.4591 92.9535 27.1033 92.9535 24.6845V9.83694H95.0735C97.4495 9.83694 97.9974 10.0645 98.5167 10.769C98.9153 11.2954 99.2424 12.1063 99.5769 13.6217L100.516 13.5222Z" fill="#2D2C2B"/>
<path fill-rule="evenodd" clip-rule="evenodd" d="M32.0256 34.0794V33.0748C31.3657 33.3205 30.595 33.5487 30.0399 33.6386V33.9535C30.8229 34.0587 30.8917 34.0947 30.8917 34.9014V40.696C30.8917 41.53 30.7778 41.6198 29.935 41.6981V42.0518H33.1322V41.6981C32.1214 41.611 32.0256 41.53 32.0256 40.5883V38.8935C32.2087 38.9805 32.5594 39.0944 32.9466 39.1035C34.6349 38.7886 36.2005 37.553 36.2005 35.6484C36.2005 34.3436 35.337 33.2009 33.8613 33.2009C33.6963 33.2009 33.4412 33.2636 33.1864 33.4107L32.0256 34.0794ZM28.4769 28.5036V27.2904C25.6978 27.0067 25.0912 26.5466 23.7209 22.8573C20.8832 15.5181 18.1336 8.05167 15.3837 0.624268L13.8963 0.996185L4.90311 22.8573C3.36681 26.5761 2.77011 26.8598 0.000610352 27.2904V28.5036H9.43402V27.2904C6.19492 26.948 5.85251 26.4584 6.77231 23.9143C7.31061 22.2507 7.88771 20.6264 8.60211 18.7082H17.8104C18.7206 21.1058 19.4936 23.2 20.1002 24.8537C20.668 26.5466 20.2961 26.9185 17.6344 27.2904V28.5036H28.4769ZM17.1743 16.8294H9.31671C10.6081 13.4534 11.9586 9.86217 13.3286 6.38828H13.4167L17.1743 16.8294ZM32.0256 34.5205C32.3675 34.2656 32.8774 33.9926 33.2731 33.9926C34.1881 33.9926 35.0127 34.7396 35.0127 36.149C35.0127 37.4957 34.3381 38.4736 33.2462 38.4736C32.8145 38.4736 32.3136 38.2545 32.0256 37.9728V34.5205ZM42.4934 38.4348L42.3616 38.0927C42.2204 38.1706 42.0464 38.2338 41.8964 38.2338C41.6594 38.2338 41.4315 38.0388 41.4315 37.4688V35.1563C41.4315 34.4694 41.2906 33.9325 40.8076 33.5275C40.5108 33.2999 40.1327 33.2038 39.7188 33.2038C38.99 33.3446 38.1022 33.8365 37.7272 34.1094C37.4755 34.2835 37.3105 34.4425 37.3105 34.6375C37.3105 34.9434 37.6493 35.2073 37.9013 35.2073C38.1022 35.2073 38.2431 35.1203 38.3213 34.8924C38.435 34.4785 38.549 34.1877 38.7171 34.0196C38.8489 33.8787 39.0411 33.7917 39.269 33.7917C39.8957 33.7917 40.3158 34.2835 40.3158 35.2073V35.4352C40.0369 35.675 39.1281 36.0081 38.2941 36.272C37.5894 36.5002 37.2385 36.8868 37.2385 37.5289C37.2385 38.3387 37.8774 39.1035 38.8489 39.1035C39.2179 39.1035 39.8328 38.6417 40.3609 38.3118C40.4207 38.5128 40.5018 38.6865 40.6758 38.8515C40.8167 38.9896 41.0984 39.1035 41.3417 39.1035L42.4934 38.4348ZM40.3158 37.892C40.0879 38.1196 39.665 38.3118 39.3588 38.3118C38.9722 38.3118 38.4622 38.0147 38.4622 37.3367C38.4622 36.863 38.7412 36.6082 39.2539 36.3859C39.5238 36.2632 40.0519 36.0171 40.3158 35.8853V37.892ZM44.9198 34.5862V33.1468C44.2509 33.4226 43.6391 33.5728 42.9883 33.6777V33.9685C43.7171 34.0765 43.786 34.1276 43.786 34.9493V37.6159C43.786 38.4615 43.672 38.5397 42.8831 38.6176V38.9595H45.9996V38.6176C44.9799 38.5397 44.9198 38.4615 44.9198 37.6159V35.3184C45.1988 34.6316 45.5948 34.2597 45.9307 34.2597C46.1495 34.2597 46.2995 34.3376 46.5004 34.5173C46.5787 34.5862 46.6923 34.6103 46.8514 34.5505C47.1334 34.4184 47.3103 34.1576 47.3103 33.8577C47.3103 33.5428 46.9925 33.2009 46.5186 33.2009C45.9125 33.1916 45.3756 33.8818 44.9439 34.5862H44.9198ZM54.1758 38.9595V38.6026C53.7019 38.5757 53.3331 38.3656 52.8832 37.8979C52.4722 37.46 51.1195 35.9213 50.8465 35.5253C51.3806 34.9105 51.6022 34.6616 51.9444 34.3376C52.4453 33.8725 52.7783 33.7316 53.6659 33.5907V33.2548L50.9245 33.3719V33.7228C51.5214 33.7917 51.5756 33.8965 51.3117 34.2835C51.0926 34.6194 50.6968 35.1384 50.4145 35.4114C50.2047 35.6033 49.9947 35.7802 49.6081 35.8581V29.8175C49.0292 29.9944 48.2369 30.2044 47.6221 30.2642V30.5704C48.4141 30.6483 48.4921 30.7203 48.4921 31.5512V37.5918C48.4921 38.4167 48.405 38.5068 47.5354 38.6026V38.9595H50.5557V38.6026C49.7217 38.5068 49.6081 38.4436 49.6081 37.5918V36.1943C49.6857 36.1762 49.7489 36.1671 49.7997 36.1762C49.9139 36.1762 50.0188 36.2451 50.1778 36.4401C50.8647 37.2559 51.6805 38.3206 52.2772 38.9745L54.1758 38.9595ZM58.8521 37.5289C58.3782 37.9668 57.877 38.1706 57.3401 38.1706C56.4344 38.1706 55.4596 37.4688 55.4327 35.8071C56.9444 35.7564 58.5791 35.6243 58.8158 35.5883C59.0528 35.5341 59.1248 35.4202 59.1248 35.1744C59.1248 34.1576 58.237 33.2009 57.1213 33.2009H57.1122C56.4163 33.2009 55.7057 33.5697 55.1416 34.1845C54.6138 34.7543 54.3048 35.5282 54.3048 36.38C54.3048 37.8106 55.2558 39.1004 56.8662 39.1004C57.2863 39.1004 58.2279 38.8725 59.0707 37.8106L58.8521 37.5289ZM56.8123 33.6868C57.4991 33.6868 57.919 34.3076 57.919 34.9825C57.919 35.1503 57.841 35.2192 57.6131 35.2283C56.8843 35.2552 56.1884 35.2552 55.4956 35.2552C55.6784 34.1845 56.2425 33.6868 56.8032 33.6868H56.8123ZM63.4199 38.4796L63.3059 38.1287C63.114 38.2245 62.8229 38.3475 62.5139 38.3475C62.1902 38.3475 61.7432 38.1737 61.7432 37.1329V33.8818H63.114C63.2878 33.7676 63.3328 33.4886 63.201 33.3478H61.7432V31.554L61.5663 31.518L60.6093 32.4149V33.3478H60.0217L59.6617 33.7228L59.7215 33.8818H60.6093V37.5827C60.6093 38.6176 61.0923 39.1035 61.962 39.1035C62.0762 39.1035 62.2769 39.0584 62.5139 38.9295L63.4199 38.4796ZM67.3311 38.4796L67.2172 38.1287C67.0253 38.2245 66.7341 38.3475 66.4252 38.3475C66.1014 38.3475 65.6544 38.1737 65.6544 37.1329V33.8818H67.0253C67.199 33.7676 67.2441 33.4886 67.1123 33.3478H65.6544V31.554L65.4775 31.518L64.5206 32.4149V33.3478H63.9329L63.5729 33.7228L63.6327 33.8818H64.5206V37.5827C64.5206 38.6176 65.0036 39.1035 65.8733 39.1035C65.9875 39.1035 66.1882 39.0584 66.4252 38.9295L67.3311 38.4796Z" fill="#E31C2A"/>
</svg>
